<svg xmlns="http://www.w3.org/2000/svg" xmlns:xlink="http://www.w3.org/1999/xlink" id="body_3" preserveAspectRatio="xMinYMin meet" viewBox="0 0 960 607"><defs><clipPath id="1"><path d="M0 455L0 -0.04000854L0 -0.04000854L720 -0.04000854L720 -0.04000854L720 455L720 455L0 455z" /></clipPath><clipPath id="2"><path d="M0 454.9999L720 454.9999L720 454.9999L720 -0.0401001L720 -0.0401001L0 -0.0401001z" /></clipPath><clipPath id="3"><path d="M-5.015E-06 454.9998L720 454.9998L720 454.9998L720 -0.04016113L720 -0.04016113L-5.015E-06 -0.04016113z" /></clipPath><clipPath id="4"><path d="M0 454.9998L720 454.9998L720 454.9998L720 -0.04016113L720 -0.04016113L0 -0.04016113z" /></clipPath><clipPath id="5"><path d="M-1.67E-07 454.9999L720 454.9999L720 454.9999L720 -0.0401001L720 -0.0401001L-1.67E-07 -0.0401001z" /></clipPath><clipPath id="6"><path d="M-0.00010967 454.9998L719.9999 454.9998L719.9999 454.9998L719.9999 -0.04019165L719.9999 -0.04019165L-0.00010967 -0.04019165z" /></clipPath><clipPath id="7"><path d="M-1.099E-06 454.9998L720 454.9998L720 454.9998L720 -0.04019165L720 -0.04019165L-1.099E-06 -0.04019165z" /></clipPath><clipPath id="8"><path d="M1.0729E-05 455L720 455L720 455L720 -0.04000854L720 -0.04000854L1.0729E-05 -0.04000854z" /></clipPath><clipPath id="9"><path d="M1.0729E-05 455L720 455L720 455L720 -0.04000854L720 -0.04000854L1.0729E-05 -0.04000854z" /></clipPath><clipPath id="10"><path d="M1.0729E-05 455L720 455L720 455L720 -0.04000854L720 -0.04000854L1.0729E-05 -0.04000854z" /></clipPath><clipPath id="11"><path d="M1.0729E-05 455L720 455L720 455L720 -0.04000854L720 -0.04000854L1.0729E-05 -0.04000854z" /></clipPath><clipPath id="12"><path d="M1.0729E-05 455L720 455L720 455L720 -0.04000854L720 -0.04000854L1.0729E-05 -0.04000854z" /></clipPath><clipPath id="13"><path d="M-9.451E-06 -0.04000854L720 -0.04000854L720 -0.04000854L720 454.9999L720 454.9999L-9.451E-06 454.9999" /></clipPath><clipPath id="14"><path d="M2.064E-06 -0.04000854L720 -0.04000854L720 -0.04000854L720 455L720 455L-7.779E-06 455" /></clipPath><clipPath id="15"><path d="M1.0729E-05 455L720 455L720 455L720 -0.04000854L720 -0.04000854L1.0729E-05 -0.04000854z" /></clipPath><clipPath id="16"><path d="M1.0729E-05 455L720 455L720 455L720 -0.04000854L720 -0.04000854L1.0729E-05 -0.04000854z" /></clipPath><clipPath id="17"><path d="M1.0729E-05 455L720 455L720 455L720 -0.04000854L720 -0.04000854L1.0729E-05 -0.04000854z" /></clipPath><clipPath id="18"><path d="M1.0729E-05 455L720 455L720 455L720 -0.04000854L720 -0.04000854L1.0729E-05 -0.04000854z" /></clipPath><clipPath id="19"><path d="M1.0729E-05 455L720 455L720 455L720 -0.04000854L720 -0.04000854L1.0729E-05 -0.04000854z" /></clipPath><clipPath id="20"><path d="M1.0729E-05 455L720 455L720 455L720 -0.04000854L720 -0.04000854L1.0729E-05 -0.04000854z" /></clipPath><clipPath id="21"><path d="M1.0729E-05 455L720 455L720 455L720 -0.04000854L720 -0.04000854L1.0729E-05 -0.04000854z" /></clipPath><clipPath id="22"><path d="M1.0729E-05 455L720 455L720 455L720 -0.04000854L720 -0.04000854L1.0729E-05 -0.04000854z" /></clipPath><clipPath id="23"><path d="M1.0729E-05 455L720 455L720 455L720 -0.04000854L720 -0.04000854L1.0729E-05 -0.04000854z" /></clipPath><clipPath id="24"><path d="M1.0729E-05 455L720 455L720 455L720 -0.04000854L720 -0.04000854L1.0729E-05 -0.04000854z" /></clipPath><clipPath id="25"><path d="M1.0729E-05 455L720 455L720 455L720 -0.04000854L720 -0.04000854L1.0729E-05 -0.04000854z" /></clipPath><clipPath id="26"><path d="M1.0729E-05 455L720 455L720 455L720 -0.04000854L720 -0.04000854L1.0729E-05 -0.04000854z" /></clipPath><clipPath id="27"><path d="M1.0729E-05 455L720 455L720 455L720 -0.04000854L720 -0.04000854L1.0729E-05 -0.04000854z" /></clipPath><clipPath id="28"><path d="M1.0729E-05 455L720 455L720 455L720 -0.04000854L720 -0.04000854L1.0729E-05 -0.04000854z" /></clipPath><clipPath id="29"><path d="M1.0729E-05 455L720 455L720 455L720 -0.04000854L720 -0.04000854L1.0729E-05 -0.04000854z" /></clipPath><clipPath id="30"><path d="M1.0729E-05 455L720 455L720 455L720 -0.04000854L720 -0.04000854L1.0729E-05 -0.04000854z" /></clipPath><clipPath id="31"><path d="M1.0729E-05 455L720 455L720 455L720 -0.04000854L720 -0.04000854L1.0729E-05 -0.04000854z" /></clipPath><clipPath id="32"><path d="M1.0729E-05 455L720 455L720 455L720 -0.04000854L720 -0.04000854L1.0729E-05 -0.04000854z" /></clipPath><clipPath id="33"><path d="M-5.6107E-05 454.9999L719.9999 454.9999L719.9999 454.9999L719.9999 -0.0401001L719.9999 -0.0401001L-5.6107E-05 -0.0401001z" /></clipPath><clipPath id="34"><path d="M-3.3114E-05 454.9998L719.9999 454.9998L719.9999 454.9998L719.9999 -0.04016113L719.9999 -0.04016113L-3.3114E-05 -0.04016113z" /></clipPath><clipPath id="35"><path d="M1.0729E-05 455L720 455L720 455L720 -0.04000854L720 -0.04000854L1.0729E-05 -0.04000854z" /></clipPath><clipPath id="36"><path d="M1.0729E-05 455L720 455L720 455L720 -0.04000854L720 -0.04000854L1.0729E-05 -0.04000854z" /></clipPath><clipPath id="37"><path d="M1.0729E-05 455L720 455L720 455L720 -0.04000854L720 -0.04000854L1.0729E-05 -0.04000854z" /></clipPath><clipPath id="38"><path d="M1.0729E-05 455L720 455L720 455L720 -0.04000854L720 -0.04000854L1.0729E-05 -0.04000854z" /></clipPath><clipPath id="39"><path d="M1.0729E-05 455L720 455L720 455L720 -0.04000854L720 -0.04000854L1.0729E-05 -0.04000854z" /></clipPath><clipPath id="40"><path d="M1.0729E-05 455L720 455L720 455L720 -0.04000854L720 -0.04000854L1.0729E-05 -0.04000854z" /></clipPath><clipPath id="41"><path d="M1.0729E-05 455L720 455L720 455L720 -0.04000854L720 -0.04000854L1.0729E-05 -0.04000854z" /></clipPath><clipPath id="42"><path d="M1.0729E-05 455L720 455L720 455L720 -0.04000854L720 -0.04000854L1.0729E-05 -0.04000854z" /></clipPath><clipPath id="43"><path d="M1.0729E-05 455L720 455L720 455L720 -0.04000854L720 -0.04000854L1.0729E-05 -0.04000854z" /></clipPath><clipPath id="44"><path d="M1.0729E-05 455L720 455L720 455L720 -0.04000854L720 -0.04000854L1.0729E-05 -0.04000854z" /></clipPath><clipPath id="45"><path d="M1.0729E-05 455L720 455L720 455L720 -0.04000854L720 -0.04000854L1.0729E-05 -0.04000854z" /></clipPath><clipPath id="46"><path d="M1.0729E-05 455L720 455L720 455L720 -0.04000854L720 -0.04000854L1.0729E-05 -0.04000854z" /></clipPath><clipPath id="47"><path d="M1.0729E-05 455L720 455L720 455L720 -0.04000854L720 -0.04000854L1.0729E-05 -0.04000854z" /></clipPath><clipPath id="48"><path d="M1.0729E-05 455L720 455L720 455L720 -0.04000854L720 -0.04000854L1.0729E-05 -0.04000854z" /></clipPath><clipPath id="49"><path d="M1.0729E-05 455L720 455L720 455L720 -0.04000854L720 -0.04000854L1.0729E-05 -0.04000854z" /></clipPath><clipPath id="50"><path d="M1.0729E-05 455L720 455L720 455L720 -0.04000854L720 -0.04000854L1.0729E-05 -0.04000854z" /></clipPath><clipPath id="51"><path d="M1.0729E-05 455L720 455L720 455L720 -0.04000854L720 -0.04000854L1.0729E-05 -0.04000854z" /></clipPath><clipPath id="52"><path d="M1.0729E-05 455L720 455L720 455L720 -0.04000854L720 -0.04000854L1.0729E-05 -0.04000854z" /></clipPath><clipPath id="53"><path d="M1.0729E-05 455L720 455L720 455L720 -0.04000854L720 -0.04000854L1.0729E-05 -0.04000854z" /></clipPath><clipPath id="54"><path d="M1.0729E-05 455L720 455L720 455L720 -0.04000854L720 -0.04000854L1.0729E-05 -0.04000854z" /></clipPath><clipPath id="55"><path d="M1.0729E-05 455L720 455L720 455L720 -0.04000854L720 -0.04000854L1.0729E-05 -0.04000854z" /></clipPath><clipPath id="56"><path d="M1.0729E-05 455L720 455L720 455L720 -0.04000854L720 -0.04000854L1.0729E-05 -0.04000854z" /></clipPath><clipPath id="57"><path d="M1.0729E-05 455L720 455L720 455L720 -0.04000854L720 -0.04000854L1.0729E-05 -0.04000854z" /></clipPath><clipPath id="58"><path d="M1.0729E-05 455L720 455L720 455L720 -0.04000854L720 -0.04000854L1.0729E-05 -0.04000854z" /></clipPath><clipPath id="59"><path d="M1.0729E-05 455L720 455L720 455L720 -0.04000854L720 -0.04000854L1.0729E-05 -0.04000854z" /></clipPath><clipPath id="60"><path d="M1.0729E-05 455L720 455L720 455L720 -0.04000854L720 -0.04000854L1.0729E-05 -0.04000854z" /></clipPath><clipPath id="61"><path d="M1.0729E-05 455L720 455L720 455L720 -0.04000854L720 -0.04000854L1.0729E-05 -0.04000854z" /></clipPath><clipPath id="62"><path d="M1.0729E-05 455L720 455L720 455L720 -0.04000854L720 -0.04000854L1.0729E-05 -0.04000854z" /></clipPath><clipPath id="63"><path d="M1.0729E-05 455L720 455L720 455L720 -0.04000854L720 -0.04000854L1.0729E-05 -0.04000854z" /></clipPath><clipPath id="64"><path d="M1.0729E-05 455L720 455L720 455L720 -0.04000854L720 -0.04000854L1.0729E-05 -0.04000854z" /></clipPath><clipPath id="65"><path d="M1.0729E-05 455L720 455L720 455L720 -0.04000854L720 -0.04000854L1.0729E-05 -0.04000854z" /></clipPath><clipPath id="66"><path d="M1.0729E-05 455L720 455L720 455L720 -0.04000854L720 -0.04000854L1.0729E-05 -0.04000854z" /></clipPath><clipPath id="67"><path d="M1.0729E-05 455L720 455L720 455L720 -0.04000854L720 -0.04000854L1.0729E-05 -0.04000854z" /></clipPath><clipPath id="68"><path d="M1.0729E-05 455L720 455L720 455L720 -0.04000854L720 -0.04000854L1.0729E-05 -0.04000854z" /></clipPath><clipPath id="69"><path d="M1.0729E-05 455L720 455L720 455L720 -0.04000854L720 -0.04000854L1.0729E-05 -0.04000854z" /></clipPath><clipPath id="70"><path d="M1.0729E-05 455L720 455L720 455L720 -0.04000854L720 -0.04000854L1.0729E-05 -0.04000854z" /></clipPath><clipPath id="71"><path d="M1.0729E-05 455L720 455L720 455L720 -0.04000854L720 -0.04000854L1.0729E-05 -0.04000854z" /></clipPath><clipPath id="72"><path d="M1.0729E-05 455L720 455L720 455L720 -0.04000854L720 -0.04000854L1.0729E-05 -0.04000854z" /></clipPath><clipPath id="73"><path d="M1.0729E-05 455L720 455L720 455L720 -0.04000854L720 -0.04000854L1.0729E-05 -0.04000854z" /></clipPath><clipPath id="74"><path d="M1.0729E-05 455L720 455L720 455L720 -0.04000854L720 -0.04000854L1.0729E-05 -0.04000854z" /></clipPath><clipPath id="75"><path d="M1.0729E-05 455L720 455L720 455L720 -0.04000854L720 -0.04000854L1.0729E-05 -0.04000854z" /></clipPath><clipPath id="76"><path d="M1.0729E-05 455L720 455L720 455L720 -0.04000854L720 -0.04000854L1.0729E-05 -0.04000854z" /></clipPath><clipPath id="77"><path d="M1.0729E-05 455L720 455L720 455L720 -0.04000854L720 -0.04000854L1.0729E-05 -0.04000854z" /></clipPath><clipPath id="78"><path d="M1.0729E-05 455L720 455L720 455L720 -0.04000854L720 -0.04000854L1.0729E-05 -0.04000854z" /></clipPath><clipPath id="79"><path d="M1.0729E-05 455L720 455L720 455L720 -0.04000854L720 -0.04000854L1.0729E-05 -0.04000854z" /></clipPath><clipPath id="80"><path d="M1.0729E-05 455L720 455L720 455L720 -0.04000854L720 -0.04000854L1.0729E-05 -0.04000854z" /></clipPath><clipPath id="81"><path d="M1.0729E-05 455L720 455L720 455L720 -0.04000854L720 -0.04000854L1.0729E-05 -0.04000854z" /></clipPath><clipPath id="82"><path d="M1.0729E-05 455L720 455L720 455L720 -0.04000854L720 -0.04000854L1.0729E-05 -0.04000854z" /></clipPath><clipPath id="83"><path d="M1.0729E-05 455L720 455L720 455L720 -0.04000854L720 -0.04000854L1.0729E-05 -0.04000854z" /></clipPath><clipPath id="84"><path d="M1.0729E-05 455L720 455L720 455L720 -0.04000854L720 -0.04000854L1.0729E-05 -0.04000854z" /></clipPath><clipPath id="85"><path d="M1.0729E-05 455L720 455L720 455L720 -0.04000854L720 -0.04000854L1.0729E-05 -0.04000854z" /></clipPath><clipPath id="86"><path d="M-7.845E-06 -0.04000854L720 -0.04000854L720 -0.04000854L720 454.9999L720 454.9999L-1.2429E-05 454.9999" /></clipPath><clipPath id="87"><path d="M-7.845E-06 -0.04000854L720 -0.04000854L720 -0.04000854L720 454.9999L720 454.9999L-1.2429E-05 454.9999" /></clipPath><clipPath id="88"><path d="M1.0729E-05 455L720 455L720 455L720 -0.04000854L720 -0.04000854L1.0729E-05 -0.04000854z" /></clipPath><clipPath id="89"><path d="M1.0729E-05 455L720 455L720 455L720 -0.04000854L720 -0.04000854L1.0729E-05 -0.04000854z" /></clipPath><clipPath id="90"><path d="M1.0729E-05 455L720 455L720 455L720 -0.04000854L720 -0.04000854L1.0729E-05 -0.04000854z" /></clipPath><clipPath id="91"><path d="M1.0729E-05 455L720 455L720 455L720 -0.04000854L720 -0.04000854L1.0729E-05 -0.04000854z" /></clipPath><clipPath id="92"><path d="M1.0729E-05 455L720 455L720 455L720 -0.04000854L720 -0.04000854L1.0729E-05 -0.04000854z" /></clipPath><clipPath id="93"><path d="M1.0729E-05 455L720 455L720 455L720 -0.04000854L720 -0.04000854L1.0729E-05 -0.04000854z" /></clipPath><clipPath id="94"><path d="M1.0729E-05 455L720 455L720 455L720 -0.04000854L720 -0.04000854L1.0729E-05 -0.04000854z" /></clipPath><clipPath id="95"><path d="M1.0729E-05 455L720 455L720 455L720 -0.04000854L720 -0.04000854L1.0729E-05 -0.04000854z" /></clipPath><clipPath id="96"><path d="M1.0729E-05 455L720 455L720 455L720 -0.04000854L720 -0.04000854L1.0729E-05 -0.04000854z" /></clipPath><clipPath id="97"><path d="M1.0729E-05 455L720 455L720 455L720 -0.04000854L720 -0.04000854L1.0729E-05 -0.04000854z" /></clipPath><clipPath id="98"><path d="M1.0729E-05 455L720 455L720 455L720 -0.04000854L720 -0.04000854L1.0729E-05 -0.04000854z" /></clipPath><clipPath id="99"><path d="M1.0729E-05 455L720 455L720 455L720 -0.04000854L720 -0.04000854L1.0729E-05 -0.04000854z" /></clipPath><clipPath id="100"><path d="M1.0729E-05 455L720 455L720 455L720 -0.04000854L720 -0.04000854L1.0729E-05 -0.04000854z" /></clipPath><clipPath id="101"><path d="M1.0729E-05 455L720 455L720 455L720 -0.04000854L720 -0.04000854L1.0729E-05 -0.04000854z" /></clipPath><clipPath id="102"><path d="M1.0729E-05 455L720 455L720 455L720 -0.04000854L720 -0.04000854L1.0729E-05 -0.04000854z" /></clipPath><clipPath id="103"><path d="M1.0729E-05 455L720 455L720 455L720 -0.04000854L720 -0.04000854L1.0729E-05 -0.04000854z" /></clipPath><clipPath id="104"><path d="M1.0729E-05 455L720 455L720 455L720 -0.04000854L720 -0.04000854L1.0729E-05 -0.04000854z" /></clipPath><clipPath id="105"><path d="M1.0729E-05 455L720 455L720 455L720 -0.04000854L720 -0.04000854L1.0729E-05 -0.04000854z" /></clipPath><clipPath id="106"><path d="M1.0729E-05 455L720 455L720 455L720 -0.04000854L720 -0.04000854L1.0729E-05 -0.04000854z" /></clipPath><clipPath id="107"><path d="M1.0729E-05 455L720 455L720 455L720 -0.04000854L720 -0.04000854L1.0729E-05 -0.04000854z" /></clipPath><clipPath id="108"><path d="M1.0729E-05 455L720 455L720 455L720 -0.04000854L720 -0.04000854L1.0729E-05 -0.04000854z" /></clipPath><clipPath id="109"><path d="M1.0729E-05 455L720 455L720 455L720 -0.04000854L720 -0.04000854L1.0729E-05 -0.04000854z" /></clipPath><clipPath id="110"><path d="M1.0729E-05 455L720 455L720 455L720 -0.04000854L720 -0.04000854L1.0729E-05 -0.04000854z" /></clipPath><clipPath id="111"><path d="M1.0729E-05 455L720 455L720 455L720 -0.04000854L720 -0.04000854L1.0729E-05 -0.04000854z" /></clipPath><clipPath id="112"><path d="M1.0729E-05 455L720 455L720 455L720 -0.04000854L720 -0.04000854L1.0729E-05 -0.04000854z" /></clipPath><clipPath id="113"><path d="M1.0729E-05 455L720 455L720 455L720 -0.04000854L720 -0.04000854L1.0729E-05 -0.04000854z" /></clipPath><clipPath id="114"><path d="M1.0729E-05 455L720 455L720 455L720 -0.04000854L720 -0.04000854L1.0729E-05 -0.04000854z" /></clipPath><clipPath id="115"><path d="M1.0729E-05 455L720 455L720 455L720 -0.04000854L720 -0.04000854L1.0729E-05 -0.04000854z" /></clipPath><clipPath id="116"><path d="M1.0729E-05 455L720 455L720 455L720 -0.04000854L720 -0.04000854L1.0729E-05 -0.04000854z" /></clipPath><clipPath id="117"><path d="M1.0729E-05 455L720 455L720 455L720 -0.04000854L720 -0.04000854L1.0729E-05 -0.04000854z" /></clipPath><clipPath id="118"><path d="M1.0729E-05 455L720 455L720 455L720 -0.04000854L720 -0.04000854L1.0729E-05 -0.04000854z" /></clipPath><clipPath id="119"><path d="M1.0729E-05 455L720 455L720 455L720 -0.04000854L720 -0.04000854L1.0729E-05 -0.04000854z" /></clipPath><clipPath id="120"><path d="M1.0729E-05 455L720 455L720 455L720 -0.04000854L720 -0.04000854L1.0729E-05 -0.04000854z" /></clipPath><clipPath id="121"><path d="M1.0729E-05 455L720 455L720 455L720 -0.04000854L720 -0.04000854L1.0729E-05 -0.04000854z" /></clipPath><clipPath id="122"><path d="M1.0729E-05 455L720 455L720 455L720 -0.04000854L720 -0.04000854L1.0729E-05 -0.04000854z" /></clipPath><clipPath id="123"><path d="M1.0729E-05 455L720 455L720 455L720 -0.04000854L720 -0.04000854L1.0729E-05 -0.04000854z" /></clipPath><clipPath id="124"><path d="M1.0729E-05 455L720 455L720 455L720 -0.04000854L720 -0.04000854L1.0729E-05 -0.04000854z" /></clipPath><clipPath id="125"><path d="M1.0729E-05 455L720 455L720 455L720 -0.04000854L720 -0.04000854L1.0729E-05 -0.04000854z" /></clipPath><clipPath id="126"><path d="M1.0729E-05 455L720 455L720 455L720 -0.04000854L720 -0.04000854L1.0729E-05 -0.04000854z" /></clipPath><clipPath id="127"><path d="M1.0729E-05 455L720 455L720 455L720 -0.04000854L720 -0.04000854L1.0729E-05 -0.04000854z" /></clipPath><clipPath id="128"><path d="M1.0729E-05 455L720 455L720 455L720 -0.04000854L720 -0.04000854L1.0729E-05 -0.04000854z" /></clipPath><clipPath id="129"><path d="M1.0729E-05 455L720 455L720 455L720 -0.04000854L720 -0.04000854L1.0729E-05 -0.04000854z" /></clipPath><clipPath id="130"><path d="M1.0729E-05 455L720 455L720 455L720 -0.04000854L720 -0.04000854L1.0729E-05 -0.04000854z" /></clipPath><clipPath id="131"><path d="M1.0729E-05 455L720 455L720 455L720 -0.04000854L720 -0.04000854L1.0729E-05 -0.04000854z" /></clipPath><clipPath id="132"><path d="M1.0729E-05 455L720 455L720 455L720 -0.04000854L720 -0.04000854L1.0729E-05 -0.04000854z" /></clipPath><clipPath id="133"><path d="M1.0729E-05 455L720 455L720 455L720 -0.04000854L720 -0.04000854L1.0729E-05 -0.04000854z" /></clipPath><clipPath id="134"><path d="M1.0729E-05 455L720 455L720 455L720 -0.04000854L720 -0.04000854L1.0729E-05 -0.04000854z" /></clipPath><clipPath id="135"><path d="M1.0729E-05 455L720 455L720 455L720 -0.04000854L720 -0.04000854L1.0729E-05 -0.04000854z" /></clipPath><clipPath id="136"><path d="M1.0729E-05 455L720 455L720 455L720 -0.04000854L720 -0.04000854L1.0729E-05 -0.04000854z" /></clipPath><clipPath id="137"><path d="M1.0729E-05 455L720 455L720 455L720 -0.04000854L720 -0.04000854L1.0729E-05 -0.04000854z" /></clipPath><clipPath id="138"><path d="M1.0729E-05 455L720 455L720 455L720 -0.04000854L720 -0.04000854L1.0729E-05 -0.04000854z" /></clipPath><clipPath id="139"><path d="M1.0729E-05 455L720 455L720 455L720 -0.04000854L720 -0.04000854L1.0729E-05 -0.04000854z" /></clipPath><clipPath id="140"><path d="M1.0729E-05 455L720 455L720 455L720 -0.04000854L720 -0.04000854L1.0729E-05 -0.04000854z" /></clipPath><clipPath id="141"><path d="M1.0729E-05 455L720 455L720 455L720 -0.04000854L720 -0.04000854L1.0729E-05 -0.04000854z" /></clipPath><clipPath id="142"><path d="M1.0729E-05 455L720 455L720 455L720 -0.04000854L720 -0.04000854L1.0729E-05 -0.04000854z" /></clipPath><clipPath id="143"><path d="M1.0729E-05 455L720 455L720 455L720 -0.04000854L720 -0.04000854L1.0729E-05 -0.04000854z" /></clipPath><clipPath id="144"><path d="M1.0729E-05 455L720 455L720 455L720 -0.04000854L720 -0.04000854L1.0729E-05 -0.04000854z" /></clipPath><clipPath id="145"><path d="M1.0729E-05 455L720 455L720 455L720 -0.04000854L720 -0.04000854L1.0729E-05 -0.04000854z" /></clipPath><clipPath id="146"><path d="M1.0729E-05 455L720 455L720 455L720 -0.04000854L720 -0.04000854L1.0729E-05 -0.04000854z" /></clipPath><clipPath id="147"><path d="M1.0729E-05 455L720 455L720 455L720 -0.04000854L720 -0.04000854L1.0729E-05 -0.04000854z" /></clipPath><clipPath id="148"><path d="M1.0729E-05 455L720 455L720 455L720 -0.04000854L720 -0.04000854L1.0729E-05 -0.04000854z" /></clipPath><clipPath id="149"><path d="M1.0729E-05 455L720 455L720 455L720 -0.04000854L720 -0.04000854L1.0729E-05 -0.04000854z" /></clipPath><clipPath id="150"><path d="M1.0729E-05 455L720 455L720 455L720 -0.04000854L720 -0.04000854L1.0729E-05 -0.04000854z" /></clipPath></defs><g transform="matrix(1.333333 0 0 1.333333 0 0)"><g><g clip-path="url(#1)"><g clip-path="url(#2)"><path transform="matrix(1 0 0 -1 0 455)" d="M0 3.0518E-05L720 3.0518E-05L720 3.0518E-05L720 455.04L720 455.04L0 455.04z" stroke="none" fill="#FFFFFF" fill-rule="evenodd" /></g><g clip-path="url(#3)"><g transform="matrix(0.3296728 0 0 0.3286046 -5.015E-06 2.839966)"><g transform="matrix(1 0 0 1 0 0)"><image x="0" y="0" xlink:href="img_01.png" width="2200" height="1376" /></g></g></g><g clip-path="url(#4)"><g transform="matrix(0.7500001 0 0 0.7513207 0 216.08)"><g transform="matrix(1 0 0 1 0 0)"><image x="0" y="0" xlink:href="img_02.png" width="960" height="318" /></g></g></g><path transform="matrix(1 0 0 -1 0 455)" d="M592.56 377.76C 592.56 394.99 607.76 408.96 626.52 408.96C 645.28 408.96 660.48 394.99 660.48 377.76C 660.48 360.53 645.28 346.56 626.52 346.56C 607.76 346.56 592.56 360.53 592.56 377.76z" stroke="none" fill="#FFFFFF" fill-rule="evenodd" /><g clip-path="url(#5)"><g transform="matrix(0.7129064 0 0 0.7051208 -1.8 -0.04000854)"><g transform="matrix(1 0 0 1 0 0)"><image x="0" y="0" xlink:href="img_03.png" width="1015" height="621" /></g></g></g><g clip-path="url(#6)"><g transform="matrix(0.6871942 0 0 0.7731147 617.88 407.8399)"><g transform="matrix(1 0 0 1 0 0)"><image x="0" y="0" xlink:href="img_05.png" width="139" height="61" /></g></g></g><g clip-path="url(#7)"><g transform="matrix(0.7193111 0 0 0.7091667 28.8 48.44)"><g transform="matrix(1 0 0 1 0 0)"><image x="0" y="0" xlink:href="img_06.png" width="871" height="12" /></g></g></g><path transform="matrix(1 0 0 -1 0 455)" d="M30.84 404.28L649.08 404.28" stroke="#D6ECEE" stroke-width="0.48" fill="none" /><g clip-path="url(#8)"></g><g clip-path="url(#9)"></g><g clip-path="url(#10)"></g><g clip-path="url(#11)"></g><g clip-path="url(#12)"></g><path transform="matrix(1 0 0 -1 0 455)" d="M12.72 241.26C 12.72 243.75 14.735 245.76 17.22 245.76L17.22 245.76L153.3 245.76C 155.79 245.76 157.8 243.75 157.8 241.26L157.8 241.26L157.8 223.26C 157.8 220.77 155.79 218.76 153.3 218.76L153.3 218.76L17.22 218.76C 14.735 218.76 12.72 220.77 12.72 223.26z" stroke="none" fill="#FFFFFF" fill-rule="evenodd" /><path transform="matrix(1 0 0 -1 0 455)" d="M12.72 241.26C 12.72 243.75 14.735 245.76 17.22 245.76L17.22 245.76L153.3 245.76C 155.79 245.76 157.8 243.75 157.8 241.26L157.8 241.26L157.8 223.26C 157.8 220.77 155.79 218.76 153.3 218.76L153.3 218.76L17.22 218.76C 14.735 218.76 12.72 220.77 12.72 223.26z" stroke="#333399" stroke-width="0.96" fill="none" /><path transform="matrix(1 0 0 -1 0 455)" d="M179.52 347.96C 179.52 350.43 181.53 352.44 184 352.44L184 352.44L320 352.44C 322.47 352.44 324.48 350.43 324.48 347.96L324.48 347.96L324.48 330.04C 324.48 327.57 322.47 325.56 320 325.56L320 325.56L184 325.56C 181.53 325.56 179.52 327.57 179.52 330.04z" stroke="none" fill="#FFFFFF" fill-rule="evenodd" /><path transform="matrix(1 0 0 -1 0 455)" d="M179.52 347.96C 179.52 350.43 181.53 352.44 184 352.44L184 352.44L320 352.44C 322.47 352.44 324.48 350.43 324.48 347.96L324.48 347.96L324.48 330.04C 324.48 327.57 322.47 325.56 320 325.56L320 325.56L184 325.56C 181.53 325.56 179.52 327.57 179.52 330.04z" stroke="#BBE0E3" stroke-width="0.96" fill="none" /><path transform="matrix(1 0 0 -1 0 455)" d="M181.57 271.68L205.92 271.68L205.92 271.68L205.92 266.49L205.92 266.49L183.51 266.49C 174.71 266.49 167.57 256.95 167.57 245.18L167.57 245.18L167.57 214.56L167.57 214.56L163.2 214.56L163.2 214.56L163.2 247.12C 163.2 260.69 171.42 271.68 181.57 271.68z" stroke="none" fill="#333399" fill-rule="evenodd" /><path transform="matrix(1 0 0 -1 0 455)" d="M354.13 360.84L378.48 360.84L378.48 360.84L378.48 356.32L378.48 356.32L356.07 356.32C 347.27 356.32 340.13 348.02 340.13 337.79L340.13 337.79L340.13 311.16L340.13 311.16L335.76 311.16L335.76 311.16L335.76 339.48C 335.76 351.28 343.98 360.84 354.13 360.84z" stroke="none" fill="#68C6EA" fill-rule="evenodd" /><path transform="matrix(1 0 0 -1 0 455)" d="M469.95 309.84L473.88 309.84L473.88 309.84L473.88 281.51C 473.88 269.71 466.48 260.14 457.34 260.14L457.34 260.14L440.99 260.14L440.99 260.14L435.41 260.14L435.41 260.14L375.09 260.14L375.09 260.14L356.73 260.14L356.73 260.14L354.91 260.14C 346.98 260.14 340.55 251.84 340.55 241.6L340.55 241.6L340.55 219.32L340.55 219.32L340.66 219.32L340.66 219.32L340.66 190.99C 340.66 179.19 333.26 169.62 324.12 169.62L324.12 169.62L307.77 169.62L307.77 169.62L302.19 169.62L302.19 169.62L241.87 169.62L241.87 169.62L223.51 169.62L223.51 169.62L221.69 169.62C 213.76 169.62 207.33 161.32 207.33 151.08L207.33 151.08L207.33 124.44L207.33 124.44L203.4 124.44L203.4 124.44L203.4 152.77C 203.4 164.57 210.8 174.14 219.94 174.14L219.94 174.14L223.51 174.14L223.51 174.14L241.87 174.14L241.87 174.14L302.19 174.14L302.19 174.14L307.77 174.14L307.77 174.14L322.37 174.14C 330.3 174.14 336.73 182.44 336.73 192.68L336.73 192.68L336.73 214.96L336.73 214.96L336.62 214.96L336.62 214.96L336.62 243.29C 336.62 255.09 344.02 264.66 353.16 264.66L353.16 264.66L356.73 264.66L356.73 264.66L375.09 264.66L375.09 264.66L435.41 264.66L435.41 264.66L440.99 264.66L440.99 264.66L455.59 264.66C 463.52 264.66 469.95 272.96 469.95 283.2z" stroke="none" fill="#68C6EA" fill-rule="evenodd" /><g clip-path="url(#13)"><g transform="matrix(0 0.3535537 -0.285614 0 178.92 284.6)"><g transform="matrix(1 0 0 1 0 0)"><image x="0" y="0" xlink:href="img_15.png" width="242" height="171" /></g></g></g><g clip-path="url(#14)"><path transform="matrix(1 0 0 -1 0 455)" d="M113.04 90.051L113.04 118.44L113.04 118.44L117.48 118.44L117.48 118.44L117.48 92.314C 117.48 82.052 125.64 73.733 135.7 73.733L135.7 73.733L161.88 73.733L161.88 73.733L161.88 68.64L161.88 68.64L134.04 68.64C 122.44 68.64 113.04 78.226 113.04 90.051z" stroke="none" fill="#00B050" fill-rule="evenodd" /></g><g clip-path="url(#15)"></g><g clip-path="url(#16)"></g><g clip-path="url(#17)"></g><g clip-path="url(#18)"></g><g clip-path="url(#19)"></g><g clip-path="url(#20)"></g><g clip-path="url(#21)"></g><g clip-path="url(#22)"></g><g clip-path="url(#23)"></g><g clip-path="url(#24)"></g><g clip-path="url(#25)"></g><g clip-path="url(#26)"></g><g clip-path="url(#27)"></g><g clip-path="url(#28)"></g><g clip-path="url(#29)"></g><g clip-path="url(#30)"></g><g clip-path="url(#31)"></g><g clip-path="url(#32)"></g><g clip-path="url(#33)"><g transform="matrix(0.3611881 0 0 0.360515 347.64 103.16)"><g transform="matrix(1 0 0 1 0 0)"><image x="0" y="0" xlink:href="img_16.png" width="303" height="233" /></g></g></g><g clip-path="url(#34)"><g transform="matrix(0.3602956 0 0 0.3605581 184.56 192.56)"><g transform="matrix(1 0 0 1 0 0)"><image x="0" y="0" xlink:href="img_17.png" width="406" height="215" /></g></g></g><g clip-path="url(#35)"></g><g clip-path="url(#36)"></g><g clip-path="url(#37)"></g><g clip-path="url(#38)"></g><g clip-path="url(#39)"></g><g clip-path="url(#40)"></g><g clip-path="url(#41)"></g><g clip-path="url(#42)"></g><g clip-path="url(#43)"></g><g clip-path="url(#44)"></g><g clip-path="url(#45)"></g><g clip-path="url(#46)"></g><g clip-path="url(#47)"></g><g clip-path="url(#48)"></g><g clip-path="url(#49)"></g><g clip-path="url(#50)"></g><g clip-path="url(#51)"></g><g clip-path="url(#52)"></g><g clip-path="url(#53)"></g><g clip-path="url(#54)"></g><g clip-path="url(#55)"></g><g clip-path="url(#56)"></g><g clip-path="url(#57)"></g><g clip-path="url(#58)"></g><g clip-path="url(#59)"></g><g clip-path="url(#60)"></g><path transform="matrix(1 0 0 -1 0 455)" d="M244.8 157.52C 244.8 159.99 246.81 162 249.28 162L249.28 162L385.4 162C 387.87 162 389.88 159.99 389.88 157.52L389.88 157.52L389.88 139.6C 389.88 137.13 387.87 135.12 385.4 135.12L385.4 135.12L249.28 135.12C 246.81 135.12 244.8 137.13 244.8 139.6z" stroke="none" fill="#FFFFFF" fill-rule="evenodd" /><path transform="matrix(1 0 0 -1 0 455)" d="M244.8 157.52C 244.8 159.99 246.81 162 249.28 162L249.28 162L385.4 162C 387.87 162 389.88 159.99 389.88 157.52L389.88 157.52L389.88 139.6C 389.88 137.13 387.87 135.12 385.4 135.12L385.4 135.12L249.28 135.12C 246.81 135.12 244.8 137.13 244.8 139.6z" stroke="#FFFFFF" stroke-width="0.96" fill="none" /><g clip-path="url(#61)"></g><g clip-path="url(#62)"></g><g clip-path="url(#63)"></g><g clip-path="url(#64)"></g><g clip-path="url(#65)"></g><g clip-path="url(#66)"></g><g clip-path="url(#67)"></g><g clip-path="url(#68)"></g><g clip-path="url(#69)"></g><g clip-path="url(#70)"></g><g clip-path="url(#71)"></g><g clip-path="url(#72)"></g><g clip-path="url(#73)"></g><g clip-path="url(#74)"></g><g clip-path="url(#75)"></g><g clip-path="url(#76)"></g><g clip-path="url(#77)"></g><g clip-path="url(#78)"></g><g clip-path="url(#79)"></g><g clip-path="url(#80)"></g><g clip-path="url(#81)"></g><g clip-path="url(#82)"></g><g clip-path="url(#83)"></g><g clip-path="url(#84)"></g><g clip-path="url(#85)"></g><g clip-path="url(#86)"><path transform="matrix(1 0 0 -1 0 455)" d="M109.16 281.01L114.74 253.25L114.74 253.25L116.8 253.66L116.8 253.66L113.51 248.73L113.51 248.73L108.58 252.01L108.58 252.01L110.64 252.43L110.64 252.43L105.06 280.18z" stroke="none" fill="#FFFFFF" fill-rule="evenodd" /></g><g clip-path="url(#87)"><path transform="matrix(1 0 0 -1 0 455)" d="M109.16 281.01L114.74 253.25L114.74 253.25L116.8 253.66L116.8 253.66L113.51 248.73L113.51 248.73L108.58 252.01L108.58 252.01L110.64 252.43L110.64 252.43L105.06 280.18z" stroke="#BBE0E3" stroke-width="1" fill="none" /></g><path transform="matrix(1 0 0 -1 0 455)" d="M539.28 30L712.6801 30L712.6801 30L712.6801 380.4L712.6801 380.4L539.28 380.4z" stroke="none" fill="#FFFFFF" fill-rule="evenodd" /><path transform="matrix(1 0 0 -1 0 455)" d="M539.28 30L712.6801 30L712.6801 30L712.6801 380.4L712.6801 380.4L539.28 380.4z" stroke="#BBE0E3" stroke-width="0.96" stroke-dasharray="4,3" fill="none" /><path transform="matrix(1 0 0 -1 0 455)" d="M543.84 381.82C 543.84 384.28 545.84 386.28 548.3 386.28L548.3 386.28L693.7 386.28C 696.16 386.28 698.16 384.28 698.16 381.82L698.16 381.82L698.16 363.98C 698.16 361.52 696.16 359.52 693.7 359.52L693.7 359.52L548.3 359.52C 545.84 359.52 543.84 361.52 543.84 363.98z" stroke="none" fill="#FFFFFF" fill-rule="evenodd" /><path transform="matrix(1 0 0 -1 0 455)" d="M543.84 381.82C 543.84 384.28 545.84 386.28 548.3 386.28L548.3 386.28L693.7 386.28C 696.16 386.28 698.16 384.28 698.16 381.82L698.16 381.82L698.16 363.98C 698.16 361.52 696.16 359.52 693.7 359.52L693.7 359.52L548.3 359.52C 545.84 359.52 543.84 361.52 543.84 363.98z" stroke="#BBE0E3" stroke-width="0.96" fill="none" /><g clip-path="url(#88)"></g><g clip-path="url(#89)"></g><g clip-path="url(#90)"></g><g clip-path="url(#91)"></g><g clip-path="url(#92)"></g><path transform="matrix(1 0 0 -1 0 455)" d="M543.84 259.86C 543.84 262.35 545.85 264.36 548.34 264.36L548.34 264.36L690.66 264.36C 693.15 264.36 695.16 262.35 695.16 259.86L695.16 259.86L695.16 241.86C 695.16 239.37 693.15 237.36 690.66 237.36L690.66 237.36L548.34 237.36C 545.85 237.36 543.84 239.37 543.84 241.86z" stroke="none" fill="#FFFFFF" fill-rule="evenodd" /><path transform="matrix(1 0 0 -1 0 455)" d="M543.84 259.86C 543.84 262.35 545.85 264.36 548.34 264.36L548.34 264.36L690.66 264.36C 693.15 264.36 695.16 262.35 695.16 259.86L695.16 259.86L695.16 241.86C 695.16 239.37 693.15 237.36 690.66 237.36L690.66 237.36L548.34 237.36C 545.85 237.36 543.84 239.37 543.84 241.86z" stroke="#333399" stroke-width="0.96" fill="none" /><g clip-path="url(#93)"></g><g clip-path="url(#94)"></g><g clip-path="url(#95)"></g><g clip-path="url(#96)"></g><g clip-path="url(#97)"></g><g clip-path="url(#98)"></g><g clip-path="url(#99)"></g><g clip-path="url(#100)"></g><g clip-path="url(#101)"></g><g clip-path="url(#102)"></g><g clip-path="url(#103)"></g><g clip-path="url(#104)"></g><g clip-path="url(#105)"></g><g clip-path="url(#106)"></g><g clip-path="url(#107)"></g><g clip-path="url(#108)"></g><g clip-path="url(#109)"></g><g clip-path="url(#110)"></g><g clip-path="url(#111)"></g><g clip-path="url(#112)"></g><g clip-path="url(#113)"></g><g clip-path="url(#114)"></g><g clip-path="url(#115)"></g><g clip-path="url(#116)"></g><g clip-path="url(#117)"></g><g clip-path="url(#118)"></g><g clip-path="url(#119)"></g><g clip-path="url(#120)"></g><g clip-path="url(#121)"></g><g clip-path="url(#122)"></g><g clip-path="url(#123)"></g><g clip-path="url(#124)"></g><g clip-path="url(#125)"></g><g clip-path="url(#126)"></g><g clip-path="url(#127)"></g><g clip-path="url(#128)"></g><g clip-path="url(#129)"></g><g clip-path="url(#130)"></g><g clip-path="url(#131)"></g><g clip-path="url(#132)"></g><path transform="matrix(1 0 0 -1 0 455)" d="M547.56 136.16C 547.56 138.63 549.57 140.64 552.04 140.64L552.04 140.64L690.44 140.64C 692.91 140.64 694.92 138.63 694.92 136.16L694.92 136.16L694.92 118.24C 694.92 115.77 692.91 113.76 690.44 113.76L690.44 113.76L552.04 113.76C 549.57 113.76 547.56 115.77 547.56 118.24z" stroke="none" fill="#FFFFFF" fill-rule="evenodd" /><path transform="matrix(1 0 0 -1 0 455)" d="M547.56 136.16C 547.56 138.63 549.57 140.64 552.04 140.64L552.04 140.64L690.44 140.64C 692.91 140.64 694.92 138.63 694.92 136.16L694.92 136.16L694.92 118.24C 694.92 115.77 692.91 113.76 690.44 113.76L690.44 113.76L552.04 113.76C 549.57 113.76 547.56 115.77 547.56 118.24z" stroke="#FFFFFF" stroke-width="0.96" fill="none" /><g clip-path="url(#133)"></g><g clip-path="url(#134)"></g><g clip-path="url(#135)"></g><g clip-path="url(#136)"></g><g clip-path="url(#137)"></g><g clip-path="url(#138)"></g><g clip-path="url(#139)"></g><g clip-path="url(#140)"></g><g clip-path="url(#141)"></g><g clip-path="url(#142)"></g><g clip-path="url(#143)"></g><g clip-path="url(#144)"></g><g clip-path="url(#145)"></g><path transform="matrix(1 0 0 -1 0 455)" d="M419.16 142.68L528.48 142.68L528.48 142.68L528.48 258.96L528.48 258.96L419.16 258.96z" stroke="none" fill="none" /><path transform="matrix(1 0 0 -1 0 455)" d="M419.16 142.68L528.48 142.68L528.48 142.68L528.48 258.96L528.48 258.96L419.16 258.96z" stroke="#DAEDEF" stroke-width="0.48" fill="none" /><g clip-path="url(#146)"></g><g clip-path="url(#147)"></g><g clip-path="url(#148)"></g><g clip-path="url(#149)"></g><g clip-path="url(#150)"></g><path transform="matrix(1 0 0 -1 0 455)" d="M539.28 136.6C 539.28 138.83 541.09 140.64 543.32 140.64L543.32 140.64L694.12 140.64C 696.35 140.64 698.16 138.83 698.16 136.6L698.16 136.6L698.16 120.44C 698.16 118.21 696.35 116.4 694.12 116.4L694.12 116.4L543.32 116.4C 541.09 116.4 539.28 118.21 539.28 120.44z" stroke="#89A4A7" stroke-width="0.96" fill="none" /></g></g></g></svg>