<svg xmlns="http://www.w3.org/2000/svg" xmlns:xlink="http://www.w3.org/1999/xlink" id="body_1" preserveAspectRatio="xMinYMin meet" viewBox="0 0 960 607"><defs><clipPath id="1"><path d="M0 455L0 -0.04000854L0 -0.04000854L720 -0.04000854L720 -0.04000854L720 455L720 455L0 455z" /></clipPath><clipPath id="2"><path d="M0 454.9999L720 454.9999L720 454.9999L720 -0.0401001L720 -0.0401001L0 -0.0401001z" /></clipPath><clipPath id="3"><path d="M-5.015E-06 454.9998L720 454.9998L720 454.9998L720 -0.04016113L720 -0.04016113L-5.015E-06 -0.04016113z" /></clipPath><clipPath id="4"><path d="M0 454.9998L720 454.9998L720 454.9998L720 -0.04016113L720 -0.04016113L0 -0.04016113z" /></clipPath><clipPath id="5"><path d="M-1.67E-07 454.9999L720 454.9999L720 454.9999L720 -0.0401001L720 -0.0401001L-1.67E-07 -0.0401001z" /></clipPath><clipPath id="6"><path d="M3.3791E-05 455L720.0001 455L720.0001 455L720.0001 -0.04000854L720.0001 -0.04000854L3.3791E-05 -0.04000854z" /></clipPath><clipPath id="7"><path d="M1.0729E-05 455L720 455L720 455L720 -0.04000854L720 -0.04000854L1.0729E-05 -0.04000854z" /></clipPath><clipPath id="8"><path d="M1.0729E-05 455L720 455L720 455L720 -0.04000854L720 -0.04000854L1.0729E-05 -0.04000854z" /></clipPath><clipPath id="9"><path d="M1.0729E-05 455L720 455L720 455L720 -0.04000854L720 -0.04000854L1.0729E-05 -0.04000854z" /></clipPath><clipPath id="10"><path d="M1.0729E-05 455L720 455L720 455L720 -0.04000854L720 -0.04000854L1.0729E-05 -0.04000854z" /></clipPath><clipPath id="11"><path d="M1.0729E-05 455L720 455L720 455L720 -0.04000854L720 -0.04000854L1.0729E-05 -0.04000854z" /></clipPath><clipPath id="12"><path d="M1.0729E-05 455L720 455L720 455L720 -0.04000854L720 -0.04000854L1.0729E-05 -0.04000854z" /></clipPath><clipPath id="13"><path d="M1.0729E-05 455L720 455L720 455L720 -0.04000854L720 -0.04000854L1.0729E-05 -0.04000854z" /></clipPath><clipPath id="14"><path d="M1.0729E-05 455L720 455L720 455L720 -0.04000854L720 -0.04000854L1.0729E-05 -0.04000854z" /></clipPath><clipPath id="15"><path d="M1.0729E-05 455L720 455L720 455L720 -0.04000854L720 -0.04000854L1.0729E-05 -0.04000854z" /></clipPath><clipPath id="16"><path d="M1.0729E-05 455L720 455L720 455L720 -0.04000854L720 -0.04000854L1.0729E-05 -0.04000854z" /></clipPath><clipPath id="17"><path d="M1.0729E-05 455L720 455L720 455L720 -0.04000854L720 -0.04000854L1.0729E-05 -0.04000854z" /></clipPath><clipPath id="18"><path d="M1.0729E-05 455L720 455L720 455L720 -0.04000854L720 -0.04000854L1.0729E-05 -0.04000854z" /></clipPath><clipPath id="19"><path d="M1.0729E-05 455L720 455L720 455L720 -0.04000854L720 -0.04000854L1.0729E-05 -0.04000854z" /></clipPath><clipPath id="20"><path d="M1.0729E-05 455L720 455L720 455L720 -0.04000854L720 -0.04000854L1.0729E-05 -0.04000854z" /></clipPath><clipPath id="21"><path d="M1.0729E-05 455L720 455L720 455L720 -0.04000854L720 -0.04000854L1.0729E-05 -0.04000854z" /></clipPath><clipPath id="22"><path d="M1.0729E-05 455L720 455L720 455L720 -0.04000854L720 -0.04000854L1.0729E-05 -0.04000854z" /></clipPath><clipPath id="23"><path d="M1.0729E-05 455L720 455L720 455L720 -0.04000854L720 -0.04000854L1.0729E-05 -0.04000854z" /></clipPath><clipPath id="24"><path d="M1.0729E-05 455L720 455L720 455L720 -0.04000854L720 -0.04000854L1.0729E-05 -0.04000854z" /></clipPath><clipPath id="25"><path d="M1.0729E-05 455L720 455L720 455L720 -0.04000854L720 -0.04000854L1.0729E-05 -0.04000854z" /></clipPath><clipPath id="26"><path d="M1.0729E-05 455L720 455L720 455L720 -0.04000854L720 -0.04000854L1.0729E-05 -0.04000854z" /></clipPath><clipPath id="27"><path d="M1.0729E-05 455L720 455L720 455L720 -0.04000854L720 -0.04000854L1.0729E-05 -0.04000854z" /></clipPath><clipPath id="28"><path d="M1.0729E-05 455L720 455L720 455L720 -0.04000854L720 -0.04000854L1.0729E-05 -0.04000854z" /></clipPath></defs><g transform="matrix(1.333333 0 0 1.333333 0 0)"><g><g clip-path="url(#1)"><g clip-path="url(#2)"><path transform="matrix(1 0 0 -1 0 455)" d="M0 3.0518E-05L720 3.0518E-05L720 3.0518E-05L720 455.04L720 455.04L0 455.04z" stroke="none" fill="#FFFFFF" fill-rule="evenodd" /></g><g clip-path="url(#3)"><g transform="matrix(0.3296728 0 0 0.3286046 -5.015E-06 2.839966)"><g transform="matrix(1 0 0 1 0 0)"><image x="0" y="0" xlink:href="img_01.png" width="2200" height="1376" /></g></g></g><g clip-path="url(#4)"><g transform="matrix(0.7500001 0 0 0.7513207 0 216.08)"><g transform="matrix(1 0 0 1 0 0)"><image x="0" y="0" xlink:href="img_02.png" width="960" height="318" /></g></g></g><path transform="matrix(1 0 0 -1 0 455)" d="M592.56 377.76C 592.56 394.99 607.76 408.96 626.52 408.96C 645.28 408.96 660.48 394.99 660.48 377.76C 660.48 360.53 645.28 346.56 626.52 346.56C 607.76 346.56 592.56 360.53 592.56 377.76z" stroke="none" fill="#FFFFFF" fill-rule="evenodd" /><g clip-path="url(#5)"><g transform="matrix(0.7129064 0 0 0.7051208 -1.8 -0.04000854)"><g transform="matrix(1 0 0 1 0 0)"><image x="0" y="0" xlink:href="img_03.png" width="1015" height="621" /></g></g></g><path transform="matrix(1 0 0 -1 0 455)" d="M33.96 51.84L686.04 51.84L686.04 51.84L686.04 380.52L686.04 380.52L33.96 380.52z" stroke="none" fill="#FFFFFF" fill-rule="evenodd" fill-opacity="0.4470588" /><path transform="matrix(1 0 0 -1 0 455)" d="M0 391.92L51 391.92L51 391.92L51 403.32L51 403.32L0 403.32z" stroke="none" fill="#5487C4" fill-rule="evenodd" fill-opacity="0.7411765" /><g clip-path="url(#6)"><path transform="matrix(1 0 0 -1 0 455)" d="M49.56 394.8L729.84 394.8L729.84 394.8L729.84 397.68L729.84 397.68L49.56 397.68z" stroke="none" fill="none" /></g><g clip-path="url(#7)"></g><g clip-path="url(#8)"></g><g clip-path="url(#9)"></g><g clip-path="url(#10)"></g><g clip-path="url(#11)"></g><g clip-path="url(#12)"></g><g clip-path="url(#13)"></g><g clip-path="url(#14)"></g><g clip-path="url(#15)"></g><g clip-path="url(#16)"></g><g clip-path="url(#17)"></g><g clip-path="url(#18)"></g><g clip-path="url(#19)"></g><g clip-path="url(#20)"></g><g clip-path="url(#21)"></g><g clip-path="url(#22)"></g><g clip-path="url(#23)"></g><g clip-path="url(#24)"></g><g clip-path="url(#25)"></g><g clip-path="url(#26)"></g><g clip-path="url(#27)"></g><g clip-path="url(#28)"></g></g></g></g></svg>