<svg xmlns="http://www.w3.org/2000/svg" xmlns:xlink="http://www.w3.org/1999/xlink" id="body_5" preserveAspectRatio="xMinYMin meet" viewBox="0 0 960 607"><defs><clipPath id="1"><path d="M0 455L0 -0.04000854L0 -0.04000854L720 -0.04000854L720 -0.04000854L720 455L720 455L0 455z" /></clipPath><clipPath id="2"><path d="M0 454.9999L720 454.9999L720 454.9999L720 -0.0401001L720 -0.0401001L0 -0.0401001z" /></clipPath><clipPath id="3"><path d="M-5.015E-06 454.9998L720 454.9998L720 454.9998L720 -0.04016113L720 -0.04016113L-5.015E-06 -0.04016113z" /></clipPath><clipPath id="4"><path d="M0 454.9998L720 454.9998L720 454.9998L720 -0.04016113L720 -0.04016113L0 -0.04016113z" /></clipPath><clipPath id="5"><path d="M-1.67E-07 454.9999L720 454.9999L720 454.9999L720 -0.0401001L720 -0.0401001L-1.67E-07 -0.0401001z" /></clipPath><clipPath id="6"><path d="M1.0729E-05 455L720 455L720 455L720 -0.04000854L720 -0.04000854L1.0729E-05 -0.04000854z" /></clipPath><clipPath id="7"><path d="M1.0729E-05 455L720 455L720 455L720 -0.04000854L720 -0.04000854L1.0729E-05 -0.04000854z" /></clipPath><clipPath id="8"><path d="M1.0729E-05 455L720 455L720 455L720 -0.04000854L720 -0.04000854L1.0729E-05 -0.04000854z" /></clipPath><clipPath id="9"><path d="M1.0729E-05 455L720 455L720 455L720 -0.04000854L720 -0.04000854L1.0729E-05 -0.04000854z" /></clipPath><clipPath id="10"><path d="M8.768E-06 454.9998L720 454.9998L720 454.9998L720 -0.04022217L720 -0.04022217L8.768E-06 -0.04022217z" /></clipPath><clipPath id="11"><path d="M-2.9195E-05 454.9998L720 454.9998L720 454.9998L720 -0.04016113L720 -0.04016113L-2.9195E-05 -0.04016113z" /></clipPath><clipPath id="12"><path d="M-5.422E-06 454.9999L720 454.9999L720 454.9999L720 -0.04006958L720 -0.04006958L-5.422E-06 -0.04006958z" /></clipPath><clipPath id="13"><path d="M3.3791E-05 455L720.0001 455L720.0001 455L720.0001 -0.04000854L720.0001 -0.04000854L3.3791E-05 -0.04000854z" /></clipPath><clipPath id="14"><path d="M1.0729E-05 455L720 455L720 455L720 -0.04000854L720 -0.04000854L1.0729E-05 -0.04000854z" /></clipPath></defs><g transform="matrix(1.333333 0 0 1.333333 0 0)"><g><g clip-path="url(#1)"><g clip-path="url(#2)"><path transform="matrix(1 0 0 -1 0 455)" d="M0 3.0518E-05L720 3.0518E-05L720 3.0518E-05L720 455.04L720 455.04L0 455.04z" stroke="none" fill="#FFFFFF" fill-rule="evenodd" /></g><g clip-path="url(#3)"><g transform="matrix(0.3296728 0 0 0.3286046 -5.015E-06 2.839966)"><g transform="matrix(1 0 0 1 0 0)"><image x="0" y="0" xlink:href="img_01.png" width="2200" height="1376" /></g></g></g><g clip-path="url(#4)"><g transform="matrix(0.7500001 0 0 0.7513207 0 216.08)"><g transform="matrix(1 0 0 1 0 0)"><image x="0" y="0" xlink:href="img_02.png" width="960" height="318" /></g></g></g><path transform="matrix(1 0 0 -1 0 455)" d="M592.56 377.76C 592.56 394.99 607.76 408.96 626.52 408.96C 645.28 408.96 660.48 394.99 660.48 377.76C 660.48 360.53 645.28 346.56 626.52 346.56C 607.76 346.56 592.56 360.53 592.56 377.76z" stroke="none" fill="#FFFFFF" fill-rule="evenodd" /><g clip-path="url(#5)"><g transform="matrix(0.7129064 0 0 0.7051208 -1.8 -0.04000854)"><g transform="matrix(1 0 0 1 0 0)"><image x="0" y="0" xlink:href="img_03.png" width="1015" height="621" /></g></g></g><g clip-path="url(#6)"></g><g clip-path="url(#7)"></g><g clip-path="url(#8)"></g><g clip-path="url(#9)"></g><g clip-path="url(#10)"><g transform="matrix(0.3265764 0 0 0.3271895 270.48 74.36002)"><g transform="matrix(1 0 0 1 0 0)"><image x="0" y="0" xlink:href="img_21.png" width="517" height="918" /></g></g></g><g clip-path="url(#11)"><g transform="matrix(0.3274419 0 0 0.3275463 480.12 74.36002)"><g transform="matrix(1 0 0 1 0 0)"><image x="0" y="0" xlink:href="img_22.png" width="516" height="917" /></g></g></g><g clip-path="url(#12)"><g transform="matrix(0.3602559 0 0 0.36 54.96 75.32001)"><g transform="matrix(1 0 0 1 0 0)"><image x="0" y="0" xlink:href="img_23.png" width="469" height="840" /></g></g></g><path transform="matrix(1 0 0 -1 0 455)" d="M0 391.92L51 391.92L51 391.92L51 403.32L51 403.32L0 403.32z" stroke="none" fill="#5487C4" fill-rule="evenodd" fill-opacity="0.7411765" /><g clip-path="url(#13)"><path transform="matrix(1 0 0 -1 0 455)" d="M49.56 394.8L729.84 394.8L729.84 394.8L729.84 397.68L729.84 397.68L49.56 397.68z" stroke="none" fill="none" /></g><g clip-path="url(#14)"></g></g></g></g></svg>