<svg xmlns="http://www.w3.org/2000/svg" xmlns:xlink="http://www.w3.org/1999/xlink" id="body_2" preserveAspectRatio="xMinYMin meet" viewBox="0 0 960 607"><defs><clipPath id="1"><path d="M0 455L0 -0.04000854L0 -0.04000854L720 -0.04000854L720 -0.04000854L720 455L720 455L0 455z" /></clipPath><clipPath id="2"><path d="M0 454.9999L720 454.9999L720 454.9999L720 -0.0401001L720 -0.0401001L0 -0.0401001z" /></clipPath><clipPath id="3"><path d="M-5.015E-06 454.9998L720 454.9998L720 454.9998L720 -0.04016113L720 -0.04016113L-5.015E-06 -0.04016113z" /></clipPath><clipPath id="4"><path d="M0 454.9998L720 454.9998L720 454.9998L720 -0.04016113L720 -0.04016113L0 -0.04016113z" /></clipPath><clipPath id="5"><path d="M-1.67E-07 454.9999L720 454.9999L720 454.9999L720 -0.0401001L720 -0.0401001L-1.67E-07 -0.0401001z" /></clipPath><clipPath id="6"><path d="M-0.00010967 454.9998L719.9999 454.9998L719.9999 454.9998L719.9999 -0.04019165L719.9999 -0.04019165L-0.00010967 -0.04019165z" /></clipPath><clipPath id="7"><path d="M-1.099E-06 454.9998L720 454.9998L720 454.9998L720 -0.04019165L720 -0.04019165L-1.099E-06 -0.04019165z" /></clipPath><clipPath id="8"><path d="M1.0729E-05 455L720 455L720 455L720 -0.04000854L720 -0.04000854L1.0729E-05 -0.04000854z" /></clipPath><clipPath id="9"><path d="M1.0729E-05 455L720 455L720 455L720 -0.04000854L720 -0.04000854L1.0729E-05 -0.04000854z" /></clipPath><clipPath id="10"><path d="M-2.478E-06 -0.04000854L720 -0.04000854L720 -0.04000854L720 454.9999L720 454.9999L-1.322E-05 454.9999" /></clipPath><clipPath id="11"><path d="M-2.478E-06 -0.04000854L720 -0.04000854L720 -0.04000854L720 454.9999L720 454.9999L-1.322E-05 454.9999" /></clipPath><clipPath id="12"><path d="M-1.431E-06 -0.04000854L720 -0.04000854L720 -0.04000854L720 454.9999L720 454.9999L9.58E-06 454.9999" /></clipPath><clipPath id="13"><path d="M1.0729E-05 455L720 455L720 455L720 -0.04000854L720 -0.04000854L1.0729E-05 -0.04000854z" /></clipPath><clipPath id="14"><path d="M1.0729E-05 455L720 455L720 455L720 -0.04000854L720 -0.04000854L1.0729E-05 -0.04000854z" /></clipPath><clipPath id="15"><path d="M1.0729E-05 455L720 455L720 455L720 -0.04000854L720 -0.04000854L1.0729E-05 -0.04000854z" /></clipPath><clipPath id="16"><path d="M1.0729E-05 455L720 455L720 455L720 -0.04000854L720 -0.04000854L1.0729E-05 -0.04000854z" /></clipPath><clipPath id="17"><path d="M1.0729E-05 455L720 455L720 455L720 -0.04000854L720 -0.04000854L1.0729E-05 -0.04000854z" /></clipPath><clipPath id="18"><path d="M1.0342E-05 -0.04000854L720 -0.04000854L720 -0.04000854L720 454.9999L720 454.9999L4.567E-06 454.9999" /></clipPath><clipPath id="19"><path d="M1.0729E-05 455L720 455L720 455L720 -0.04000854L720 -0.04000854L1.0729E-05 -0.04000854z" /></clipPath><clipPath id="20"><path d="M1.0729E-05 455L720 455L720 455L720 -0.04000854L720 -0.04000854L1.0729E-05 -0.04000854z" /></clipPath><clipPath id="21"><path d="M1.0729E-05 455L720 455L720 455L720 -0.04000854L720 -0.04000854L1.0729E-05 -0.04000854z" /></clipPath><clipPath id="22"><path d="M1.0729E-05 455L720 455L720 455L720 -0.04000854L720 -0.04000854L1.0729E-05 -0.04000854z" /></clipPath><clipPath id="23"><path d="M-1.5547E-05 454.9998L720 454.9998L720 454.9998L720 -0.04019165L720 -0.04019165L-1.5547E-05 -0.04019165z" /></clipPath><clipPath id="24"><path d="M-1.0355E-05 454.9999L720 454.9999L720 454.9999L720 -0.0401001L720 -0.0401001L-1.0355E-05 -0.0401001z" /></clipPath><clipPath id="25"><path d="M-2.102E-05 454.9998L720 454.9998L720 454.9998L720 -0.04016113L720 -0.04016113L-2.102E-05 -0.04016113z" /></clipPath><clipPath id="26"><path d="M1.0729E-05 455L720 455L720 455L720 -0.04000854L720 -0.04000854L1.0729E-05 -0.04000854z" /></clipPath><clipPath id="27"><path d="M1.0729E-05 455L720 455L720 455L720 -0.04000854L720 -0.04000854L1.0729E-05 -0.04000854z" /></clipPath><clipPath id="28"><path d="M1.0729E-05 455L720 455L720 455L720 -0.04000854L720 -0.04000854L1.0729E-05 -0.04000854z" /></clipPath><clipPath id="29"><path d="M1.0729E-05 455L720 455L720 455L720 -0.04000854L720 -0.04000854L1.0729E-05 -0.04000854z" /></clipPath><clipPath id="30"><path d="M1.0729E-05 455L720 455L720 455L720 -0.04000854L720 -0.04000854L1.0729E-05 -0.04000854z" /></clipPath><clipPath id="31"><path d="M1.0729E-05 455L720 455L720 455L720 -0.04000854L720 -0.04000854L1.0729E-05 -0.04000854z" /></clipPath><clipPath id="32"><path d="M1.0729E-05 455L720 455L720 455L720 -0.04000854L720 -0.04000854L1.0729E-05 -0.04000854z" /></clipPath><clipPath id="33"><path d="M-1.0972E-05 454.9998L720 454.9998L720 454.9998L720 -0.04019165L720 -0.04019165L-1.0972E-05 -0.04019165z" /></clipPath><clipPath id="34"><path d="M1.0729E-05 455L720 455L720 455L720 -0.04000854L720 -0.04000854L1.0729E-05 -0.04000854z" /></clipPath><clipPath id="35"><path d="M1.0729E-05 455L720 455L720 455L720 -0.04000854L720 -0.04000854L1.0729E-05 -0.04000854z" /></clipPath><clipPath id="36"><path d="M1.0729E-05 455L720 455L720 455L720 -0.04000854L720 -0.04000854L1.0729E-05 -0.04000854z" /></clipPath><clipPath id="37"><path d="M1.0729E-05 455L720 455L720 455L720 -0.04000854L720 -0.04000854L1.0729E-05 -0.04000854z" /></clipPath><clipPath id="38"><path d="M1.0729E-05 455L720 455L720 455L720 -0.04000854L720 -0.04000854L1.0729E-05 -0.04000854z" /></clipPath><clipPath id="39"><path d="M1.0729E-05 455L720 455L720 455L720 -0.04000854L720 -0.04000854L1.0729E-05 -0.04000854z" /></clipPath><clipPath id="40"><path d="M1.0729E-05 455L720 455L720 455L720 -0.04000854L720 -0.04000854L1.0729E-05 -0.04000854z" /></clipPath><clipPath id="41"><path d="M1.0729E-05 455L720 455L720 455L720 -0.04000854L720 -0.04000854L1.0729E-05 -0.04000854z" /></clipPath><clipPath id="42"><path d="M1.0729E-05 455L720 455L720 455L720 -0.04000854L720 -0.04000854L1.0729E-05 -0.04000854z" /></clipPath><clipPath id="43"><path d="M1.0729E-05 455L720 455L720 455L720 -0.04000854L720 -0.04000854L1.0729E-05 -0.04000854z" /></clipPath><clipPath id="44"><path d="M1.0729E-05 455L720 455L720 455L720 -0.04000854L720 -0.04000854L1.0729E-05 -0.04000854z" /></clipPath><clipPath id="45"><path d="M1.0729E-05 455L720 455L720 455L720 -0.04000854L720 -0.04000854L1.0729E-05 -0.04000854z" /></clipPath><clipPath id="46"><path d="M1.0729E-05 455L720 455L720 455L720 -0.04000854L720 -0.04000854L1.0729E-05 -0.04000854z" /></clipPath><clipPath id="47"><path d="M1.0729E-05 455L720 455L720 455L720 -0.04000854L720 -0.04000854L1.0729E-05 -0.04000854z" /></clipPath><clipPath id="48"><path d="M1.0729E-05 455L720 455L720 455L720 -0.04000854L720 -0.04000854L1.0729E-05 -0.04000854z" /></clipPath><clipPath id="49"><path d="M1.0729E-05 455L720 455L720 455L720 -0.04000854L720 -0.04000854L1.0729E-05 -0.04000854z" /></clipPath><clipPath id="50"><path d="M1.0729E-05 455L720 455L720 455L720 -0.04000854L720 -0.04000854L1.0729E-05 -0.04000854z" /></clipPath><clipPath id="51"><path d="M1.0729E-05 455L720 455L720 455L720 -0.04000854L720 -0.04000854L1.0729E-05 -0.04000854z" /></clipPath><clipPath id="52"><path d="M1.0729E-05 455L720 455L720 455L720 -0.04000854L720 -0.04000854L1.0729E-05 -0.04000854z" /></clipPath><clipPath id="53"><path d="M1.0729E-05 455L720 455L720 455L720 -0.04000854L720 -0.04000854L1.0729E-05 -0.04000854z" /></clipPath><clipPath id="54"><path d="M1.0729E-05 455L720 455L720 455L720 -0.04000854L720 -0.04000854L1.0729E-05 -0.04000854z" /></clipPath><clipPath id="55"><path d="M1.0729E-05 455L720 455L720 455L720 -0.04000854L720 -0.04000854L1.0729E-05 -0.04000854z" /></clipPath><clipPath id="56"><path d="M1.0729E-05 455L720 455L720 455L720 -0.04000854L720 -0.04000854L1.0729E-05 -0.04000854z" /></clipPath><clipPath id="57"><path d="M1.0729E-05 455L720 455L720 455L720 -0.04000854L720 -0.04000854L1.0729E-05 -0.04000854z" /></clipPath><clipPath id="58"><path d="M1.0729E-05 455L720 455L720 455L720 -0.04000854L720 -0.04000854L1.0729E-05 -0.04000854z" /></clipPath><clipPath id="59"><path d="M1.0729E-05 455L720 455L720 455L720 -0.04000854L720 -0.04000854L1.0729E-05 -0.04000854z" /></clipPath><clipPath id="60"><path d="M1.0729E-05 455L720 455L720 455L720 -0.04000854L720 -0.04000854L1.0729E-05 -0.04000854z" /></clipPath><clipPath id="61"><path d="M1.0729E-05 455L720 455L720 455L720 -0.04000854L720 -0.04000854L1.0729E-05 -0.04000854z" /></clipPath><clipPath id="62"><path d="M1.0729E-05 455L720 455L720 455L720 -0.04000854L720 -0.04000854L1.0729E-05 -0.04000854z" /></clipPath><clipPath id="63"><path d="M1.0729E-05 455L720 455L720 455L720 -0.04000854L720 -0.04000854L1.0729E-05 -0.04000854z" /></clipPath><clipPath id="64"><path d="M1.0729E-05 455L720 455L720 455L720 -0.04000854L720 -0.04000854L1.0729E-05 -0.04000854z" /></clipPath><clipPath id="65"><path d="M1.0729E-05 455L720 455L720 455L720 -0.04000854L720 -0.04000854L1.0729E-05 -0.04000854z" /></clipPath><clipPath id="66"><path d="M1.0729E-05 455L720 455L720 455L720 -0.04000854L720 -0.04000854L1.0729E-05 -0.04000854z" /></clipPath><clipPath id="67"><path d="M1.0729E-05 455L720 455L720 455L720 -0.04000854L720 -0.04000854L1.0729E-05 -0.04000854z" /></clipPath><clipPath id="68"><path d="M1.0729E-05 455L720 455L720 455L720 -0.04000854L720 -0.04000854L1.0729E-05 -0.04000854z" /></clipPath><clipPath id="69"><path d="M1.0729E-05 455L720 455L720 455L720 -0.04000854L720 -0.04000854L1.0729E-05 -0.04000854z" /></clipPath><clipPath id="70"><path d="M1.0729E-05 455L720 455L720 455L720 -0.04000854L720 -0.04000854L1.0729E-05 -0.04000854z" /></clipPath><clipPath id="71"><path d="M1.0729E-05 455L720 455L720 455L720 -0.04000854L720 -0.04000854L1.0729E-05 -0.04000854z" /></clipPath><clipPath id="72"><path d="M1.0729E-05 455L720 455L720 455L720 -0.04000854L720 -0.04000854L1.0729E-05 -0.04000854z" /></clipPath><clipPath id="73"><path d="M-5.641E-06 -0.04000854L720 -0.04000854L720 -0.04000854L720 455L720 455L-9.382E-06 455" /></clipPath><clipPath id="74"><path d="M-2.1032E-05 454.9999L720 454.9999L720 454.9999L720 -0.04013062L720 -0.04013062L-2.1032E-05 -0.04013062z" /></clipPath></defs><g transform="matrix(1.333333 0 0 1.333333 0 0)"><g><g clip-path="url(#1)"><g clip-path="url(#2)"><path transform="matrix(1 0 0 -1 0 455)" d="M0 3.0518E-05L720 3.0518E-05L720 3.0518E-05L720 455.04L720 455.04L0 455.04z" stroke="none" fill="#FFFFFF" fill-rule="evenodd" /></g><g clip-path="url(#3)"><g transform="matrix(0.3296728 0 0 0.3286046 -5.015E-06 2.839966)"><g transform="matrix(1 0 0 1 0 0)"><image x="0" y="0" xlink:href="img_01.png" width="2200" height="1376" /></g></g></g><g clip-path="url(#4)"><g transform="matrix(0.7500001 0 0 0.7513207 0 216.08)"><g transform="matrix(1 0 0 1 0 0)"><image x="0" y="0" xlink:href="img_02.png" width="960" height="318" /></g></g></g><path transform="matrix(1 0 0 -1 0 455)" d="M592.56 377.76C 592.56 394.99 607.76 408.96 626.52 408.96C 645.28 408.96 660.48 394.99 660.48 377.76C 660.48 360.53 645.28 346.56 626.52 346.56C 607.76 346.56 592.56 360.53 592.56 377.76z" stroke="none" fill="#FFFFFF" fill-rule="evenodd" /><g clip-path="url(#5)"><g transform="matrix(0.7129064 0 0 0.7051208 -1.8 -0.04000854)"><g transform="matrix(1 0 0 1 0 0)"><image x="0" y="0" xlink:href="img_03.png" width="1015" height="621" /></g></g></g><g clip-path="url(#6)"><g transform="matrix(0.6871942 0 0 0.7731147 617.88 407.8399)"><g transform="matrix(1 0 0 1 0 0)"><image x="0" y="0" xlink:href="img_05.png" width="139" height="61" /></g></g></g><g clip-path="url(#7)"><g transform="matrix(0.7193111 0 0 0.7091667 28.8 48.44)"><g transform="matrix(1 0 0 1 0 0)"><image x="0" y="0" xlink:href="img_06.png" width="871" height="12" /></g></g></g><path transform="matrix(1 0 0 -1 0 455)" d="M30.84 404.28L649.08 404.28" stroke="#D6ECEE" stroke-width="0.48" fill="none" /><g clip-path="url(#8)"></g><g clip-path="url(#9)"></g><path transform="matrix(1 0 0 -1 0 455)" d="M405 201.72L454.56 201.72L454.56 201.72L454.56 238.56L454.56 238.56L405 238.56z" stroke="none" fill="#FFFFFF" fill-rule="evenodd" /><path transform="matrix(1 0 0 -1 0 455)" d="M405 201.72L454.56 201.72L454.56 201.72L454.56 238.56L454.56 238.56L405 238.56z" stroke="#333399" stroke-width="0.96" fill="none" /><path transform="matrix(1 0 0 -1 0 455)" d="M405.96 302.76L455.4 302.76L455.4 302.76L455.4 339.48L455.4 339.48L405.96 339.48z" stroke="none" fill="#FFFFFF" fill-rule="evenodd" /><path transform="matrix(1 0 0 -1 0 455)" d="M405.96 302.76L455.4 302.76L455.4 302.76L455.4 339.48L455.4 339.48L405.96 339.48z" stroke="#BBE0E3" stroke-width="0.96" fill="none" /><g clip-path="url(#10)"><path transform="matrix(1 0 0 -1 0 455)" d="M80.905 196.6L89.758 178.89L89.758 178.89L87.899 176.28L87.899 176.28L97.688 161.51L97.688 161.51L95.915 158.42L95.915 158.42L109.29 133.14L109.29 133.14L91.118 151.08L91.118 151.08L93.358 154.44L93.358 154.44L81.998 165.98L81.998 165.98L84.48 170.63L84.48 170.63L72.502 182.73z" stroke="none" fill="#5487C4" fill-rule="evenodd" /></g><g clip-path="url(#11)"><path transform="matrix(1 0 0 -1 0 455)" d="M80.905 196.6L89.758 178.89L89.758 178.89L87.899 176.28L87.899 176.28L97.688 161.51L97.688 161.51L95.915 158.42L95.915 158.42L109.29 133.14L109.29 133.14L91.118 151.08L91.118 151.08L93.358 154.44L93.358 154.44L81.998 165.98L81.998 165.98L84.48 170.63L84.48 170.63L72.502 182.73z" stroke="#5487C4" stroke-width="1" fill="none" /></g><g clip-path="url(#12)"><g transform="matrix(-0.04230513 0.3000192 -0.3109708 -0.04384964 273.873 284.7174)"><g transform="matrix(1 0 0 1 0 0)"><image x="0" y="0" xlink:href="img_07.png" width="156" height="137" /></g></g></g><path transform="matrix(1 0 0 -1 0 455)" d="M270.48 267.72L324.96 267.72L324.96 267.72L324.96 282.36L324.96 282.36L270.48 282.36z" stroke="none" fill="#FFFFFF" fill-rule="evenodd" /><path transform="matrix(1 0 0 -1 0 455)" d="M270.48 267.72L324.96 267.72L324.96 267.72L324.96 282.36L324.96 282.36L270.48 282.36z" stroke="#BBE0E3" stroke-width="0.96" fill="none" /><g clip-path="url(#13)"></g><path transform="matrix(1 0 0 -1 0 455)" d="M117 316.56L168.36 316.56L168.36 316.56L168.36 333.48L168.36 333.48L117 333.48z" stroke="none" fill="#FFFFFF" fill-rule="evenodd" /><path transform="matrix(1 0 0 -1 0 455)" d="M117 316.56L168.36 316.56L168.36 316.56L168.36 333.48L168.36 333.48L117 333.48z" stroke="#BBE0E3" stroke-width="0.96" fill="none" /><g clip-path="url(#14)"></g><path transform="matrix(1 0 0 -1 0 455)" d="M11.16 232.34C 11.16 236.31 34.396 239.52 63.06 239.52C 91.724 239.52 114.96 236.31 114.96 232.34L114.96 232.34L114.96 203.62C 114.96 199.65 91.724 196.44 63.06 196.44C 34.396 196.44 11.16 199.65 11.16 203.62z" stroke="none" fill="#C0C0C0" fill-rule="evenodd" /><path transform="matrix(1 0 0 -1 0 455)" d="M114.96 232.34C 114.96 228.37 91.724 225.16 63.06 225.16C 34.396 225.16 11.16 228.37 11.16 232.34" stroke="#EAEAEA" stroke-width="0.96" fill="none" /><path transform="matrix(1 0 0 -1 0 455)" d="M11.16 232.34C 11.16 236.31 34.396 239.52 63.06 239.52C 91.724 239.52 114.96 236.31 114.96 232.34L114.96 232.34L114.96 203.62C 114.96 199.65 91.724 196.44 63.06 196.44C 34.396 196.44 11.16 199.65 11.16 203.62z" stroke="#EAEAEA" stroke-width="0.96" fill="none" /><g clip-path="url(#15)"></g><g clip-path="url(#16)"></g><path transform="matrix(1 0 0 -1 0 455)" d="M131.04 307.5C 131.04 311.51 153.39 314.76 180.96 314.76C 208.53 314.76 230.88 311.51 230.88 307.5L230.88 307.5L230.88 278.46C 230.88 274.45 208.53 271.2 180.96 271.2C 153.39 271.2 131.04 274.45 131.04 278.46z" stroke="none" fill="#C0C0C0" fill-rule="evenodd" /><path transform="matrix(1 0 0 -1 0 455)" d="M230.88 307.5C 230.88 303.49 208.53 300.24 180.96 300.24C 153.39 300.24 131.04 303.49 131.04 307.5" stroke="#EAEAEA" stroke-width="0.96" fill="none" /><path transform="matrix(1 0 0 -1 0 455)" d="M131.04 307.5C 131.04 311.51 153.39 314.76 180.96 314.76C 208.53 314.76 230.88 311.51 230.88 307.5L230.88 307.5L230.88 278.46C 230.88 274.45 208.53 271.2 180.96 271.2C 153.39 271.2 131.04 274.45 131.04 278.46z" stroke="#EAEAEA" stroke-width="0.96" fill="none" /><g clip-path="url(#17)"></g><g clip-path="url(#18)"><g transform="matrix(0.3665064 -0.01717885 0.01664452 0.3551168 228.2197 169.919)"><g transform="matrix(1 0 0 1 0 0)"><image x="0" y="0" xlink:href="img_07.png" width="156" height="137" /></g></g></g><path transform="matrix(1 0 0 -1 0 455)" d="M26.76 357.6C 26.76 365.49 52.71 371.88 84.72 371.88C 116.73 371.88 142.68 365.49 142.68 357.6C 142.68 349.71 116.73 343.32 84.72 343.32C 52.71 343.32 26.76 349.71 26.76 357.6z" stroke="none" fill="#FFC000" fill-rule="evenodd" /><g clip-path="url(#19)"></g><g clip-path="url(#20)"></g><path transform="matrix(1 0 0 -1 0 455)" d="M16.56 159.48L386.31 159.48" stroke="#606060" stroke-width="0.48" stroke-dasharray="4,3" fill="none" /><g clip-path="url(#21)"></g><g clip-path="url(#22)"></g><g clip-path="url(#23)"><g transform="matrix(0.3620869 0 0 0.3612435 257.88 215.12)"><g transform="matrix(1 0 0 1 0 0)"><image x="0" y="0" xlink:href="img_08.png" width="115" height="193" /></g></g></g><g clip-path="url(#24)"><g transform="matrix(0.36 0 0 0.36125 214.08 215.48)"><g transform="matrix(1 0 0 1 0 0)"><image x="0" y="0" xlink:href="img_09.png" width="119" height="192" /></g></g></g><g clip-path="url(#25)"><g transform="matrix(0.3610435 0 0 0.3606185 301.8 214.88)"><g transform="matrix(1 0 0 1 0 0)"><image x="0" y="0" xlink:href="img_10.png" width="115" height="194" /></g></g></g><path transform="matrix(1 0 0 -1 0 455)" d="M197.52 354.36C 197.52 362.25 223.44 368.64 255.42 368.64C 287.4 368.64 313.32 362.25 313.32 354.36C 313.32 346.47 287.4 340.08 255.42 340.08C 223.44 340.08 197.52 346.47 197.52 354.36z" stroke="none" fill="#FFC000" fill-rule="evenodd" /><g clip-path="url(#26)"></g><g clip-path="url(#27)"></g><path transform="matrix(1 0 0 -1 0 455)" d="M16.56 334.92L386.31 334.92" stroke="#606060" stroke-width="0.48" stroke-dasharray="4,3" fill="none" /><g clip-path="url(#28)"></g><g clip-path="url(#29)"></g><path transform="matrix(1 0 0 -1 0 455)" d="M170.16 341.28L183.84 354.96L183.84 354.96L197.52 341.28L197.52 341.28L190.68 341.28L190.68 341.28L190.68 328.44L190.68 328.44L197.52 328.44L197.52 328.44L183.84 314.76L183.84 314.76L170.16 328.44L170.16 328.44L177 328.44L177 328.44L177 341.28z" stroke="none" fill="#79A1D1" fill-rule="evenodd" /><path transform="matrix(1 0 0 -1 0 455)" d="M170.16 341.28L183.84 354.96L183.84 354.96L197.52 341.28L197.52 341.28L190.68 341.28L190.68 341.28L190.68 328.44L190.68 328.44L197.52 328.44L197.52 328.44L183.84 314.76L183.84 314.76L170.16 328.44L170.16 328.44L177 328.44L177 328.44L177 341.28z" stroke="#89A4A7" stroke-width="0.96" fill="none" /><g clip-path="url(#30)"></g><g clip-path="url(#31)"></g><g clip-path="url(#32)"></g><g clip-path="url(#33)"><g transform="matrix(0.3620112 0 0 0.3617266 173.64 329.96)"><g transform="matrix(1 0 0 1 0 0)"><image x="0" y="0" xlink:href="img_11.png" width="179" height="139" /></g></g></g><path transform="matrix(1 0 0 -1 0 455)" d="M390.54 353.46L390.54 70.21" stroke="#000000" stroke-width="2.28" stroke-dasharray="4,3" fill="none" /><path transform="matrix(1 0 0 -1 0 455)" d="M461.64 91.68L689.4 91.68L689.4 91.68L689.4 131.88L689.4 131.88L461.64 131.88z" stroke="none" fill="#FFFFFF" fill-rule="evenodd" /><path transform="matrix(1 0 0 -1 0 455)" d="M461.64 91.68L689.4 91.68L689.4 91.68L689.4 131.88L689.4 131.88L461.64 131.88z" stroke="#000000" stroke-width="0.72" fill="none" /><g clip-path="url(#34)"></g><g clip-path="url(#35)"></g><g clip-path="url(#36)"></g><g clip-path="url(#37)"></g><g clip-path="url(#38)"></g><g clip-path="url(#39)"></g><g clip-path="url(#40)"></g><g clip-path="url(#41)"></g><g clip-path="url(#42)"></g><g clip-path="url(#43)"></g><g clip-path="url(#44)"></g><g clip-path="url(#45)"></g><g clip-path="url(#46)"></g><g clip-path="url(#47)"></g><path transform="matrix(1 0 0 -1 0 455)" d="M461.64 198.24L689.4 198.24L689.4 198.24L689.4 241.08L689.4 241.08L461.64 241.08z" stroke="none" fill="#FFFFFF" fill-rule="evenodd" /><path transform="matrix(1 0 0 -1 0 455)" d="M461.64 198.24L689.4 198.24L689.4 198.24L689.4 241.08L689.4 241.08L461.64 241.08z" stroke="#333399" stroke-width="0.96" fill="none" /><g clip-path="url(#48)"></g><g clip-path="url(#49)"></g><g clip-path="url(#50)"></g><g clip-path="url(#51)"></g><g clip-path="url(#52)"></g><g clip-path="url(#53)"></g><g clip-path="url(#54)"></g><g clip-path="url(#55)"></g><g clip-path="url(#56)"></g><g clip-path="url(#57)"></g><g clip-path="url(#58)"></g><g clip-path="url(#59)"></g><g clip-path="url(#60)"></g><g clip-path="url(#61)"></g><path transform="matrix(1 0 0 -1 0 455)" d="M404.76 93.24L454.2 93.24L454.2 93.24L454.2 130.2L454.2 130.2L404.76 130.2z" stroke="none" fill="#FFFFFF" fill-rule="evenodd" /><path transform="matrix(1 0 0 -1 0 455)" d="M404.76 93.24L454.2 93.24L454.2 93.24L454.2 130.2L454.2 130.2L404.76 130.2z" stroke="#FFFFFF" stroke-width="0.96" fill="none" /><path transform="matrix(1 0 0 -1 0 455)" d="M411.72 91.56L454.32 91.56L454.32 91.56L454.32 127.92L454.32 127.92L411.72 127.92z" stroke="#000000" stroke-width="0.72" fill="none" /><g clip-path="url(#62)"></g><g clip-path="url(#63)"></g><path transform="matrix(1 0 0 -1 0 455)" d="M461.64 300.12L689.4 300.12L689.4 300.12L689.4 340.44L689.4 340.44L461.64 340.44z" stroke="none" fill="#FFFFFF" fill-rule="evenodd" /><path transform="matrix(1 0 0 -1 0 455)" d="M461.64 300.12L689.4 300.12L689.4 300.12L689.4 340.44L689.4 340.44L461.64 340.44z" stroke="#BBE0E3" stroke-width="0.96" fill="none" /><g clip-path="url(#64)"></g><g clip-path="url(#65)"></g><g clip-path="url(#66)"></g><g clip-path="url(#67)"></g><g clip-path="url(#68)"></g><g clip-path="url(#69)"></g><g clip-path="url(#70)"></g><g clip-path="url(#71)"></g><g clip-path="url(#72)"></g><g clip-path="url(#73)"><g transform="matrix(-5.779545E-08 -0.3618182 0.3615126 -1.282269E-07 36.72 382.4)"><g transform="matrix(1 0 0 1 0 0)"><image x="0" y="0" xlink:href="img_12.png" width="132" height="238" /></g></g></g><g clip-path="url(#74)"><g transform="matrix(0.2875168 0 0 0.2878947 302.52 316.88)"><g transform="matrix(1 0 0 1 0 0)"><image x="0" y="0" xlink:href="img_13.png" width="149" height="228" /></g></g></g></g></g></g></svg>