<svg xmlns="http://www.w3.org/2000/svg" xmlns:xlink="http://www.w3.org/1999/xlink" id="body_2" preserveAspectRatio="xMinYMin meet" viewBox="0 0 793 1121"><defs><clipPath id="1"><path d="M0 841L0 -0.9200439L0 -0.9200439L595.32 -0.9200439L595.32 -0.9200439L595.32 841L595.32 841L0 841z" /></clipPath><clipPath id="2"><path d="M212.88 200.5599L382.44 200.5599L382.44 200.5599L382.44 362.92L382.44 362.92L212.88 362.92z" /></clipPath><clipPath id="3"><path d="M131.88 492.64L483.6 492.64L483.6 492.64L483.6 585.04L483.6 585.04L131.88 585.04z" /></clipPath></defs><g transform="matrix(1.333333 0 0 1.333333 0 0)"><g><g clip-path="url(#1)"><g clip-path="url(#2)"><g transform="matrix(0.5949473 0 0 0.5947253 212.88 200.5599)"><g transform="matrix(1 0 0 1 0 0)"><image x="0" y="0" xlink:href="img_04.png" width="285" height="273" /></g></g></g><g clip-path="url(#3)"><g transform="matrix(0.5134598 0 0 0.5133333 131.88 492.64)"><g transform="matrix(1 0 0 1 0 0)"><image x="0" y="0" xlink:href="img_05.png" width="685" height="180" /></g></g></g></g></g></g></svg>