<svg xmlns="http://www.w3.org/2000/svg" xmlns:xlink="http://www.w3.org/1999/xlink" id="body_3" preserveAspectRatio="xMinYMin meet" viewBox="0 0 793 1121"><defs><clipPath id="1"><path d="M0 841L0 -0.9200439L0 -0.9200439L595.32 -0.9200439L595.32 -0.9200439L595.32 841L595.32 841L0 841z" /></clipPath><clipPath id="2"><path d="M141.72 394.3599L147.72 394.3599L147.72 394.3599L147.72 409.96L147.72 409.96L141.72 409.96z" /></clipPath></defs><g transform="matrix(1.333333 0 0 1.333333 0 0)"><g><g clip-path="url(#1)"><path transform="matrix(1 0 0 -1 0 841)" d="M105.72 707.04L498.96 707.04L498.96 707.04L498.96 675.84L498.96 675.84L105.72 675.84z" stroke="none" fill="#BFBFBF" fill-rule="evenodd" /><path transform="matrix(1 0 0 -1 0 841)" d="M105.24 707.52L499.08 707.52L499.08 707.52L499.08 707.04L499.08 707.04L105.24 707.04z" stroke="none" fill="#000000" fill-rule="evenodd" /><path transform="matrix(1 0 0 -1 0 841)" d="M105.24 707.04L105.72 707.04L105.72 707.04L105.72 675.84L105.72 675.84L105.24 675.84zM499.08 707.52L499.56 707.52L499.56 707.52L499.56 707.04L499.56 707.04L499.08 707.04z" stroke="none" fill="#000000" fill-rule="evenodd" /><path transform="matrix(1 0 0 -1 0 841)" d="M499.08 707.04L499.56 707.04L499.56 707.04L499.56 675.84L499.56 675.84L499.08 675.84z" stroke="none" fill="#000000" fill-rule="winding" /><path transform="matrix(1 0 0 -1 0 841)" d="M105.24 675.84L499.08 675.84L499.08 675.84L499.08 675.36L499.08 675.36L105.24 675.36z" stroke="none" fill="#000000" fill-rule="evenodd" /><path transform="matrix(1 0 0 -1 0 841)" d="M302.4 675.36L302.88 675.36L302.88 675.36L302.88 644.16L302.88 644.16L302.4 644.16zM105.24 675.36L105.72 675.36L105.72 675.36L105.72 644.16L105.72 644.16L105.24 644.16zM499.08 675.84L499.56 675.84L499.56 675.84L499.56 675.36L499.56 675.36L499.08 675.36z" stroke="none" fill="#000000" fill-rule="evenodd" /><path transform="matrix(1 0 0 -1 0 841)" d="M499.08 675.36L499.56 675.36L499.56 675.36L499.56 644.16L499.56 644.16L499.08 644.16z" stroke="none" fill="#000000" fill-rule="winding" /><path transform="matrix(1 0 0 -1 0 841)" d="M105.24 644.16L499.08 644.16L499.08 644.16L499.08 643.6801L499.08 643.6801L105.24 643.6801z" stroke="none" fill="#000000" fill-rule="evenodd" /><path transform="matrix(1 0 0 -1 0 841)" d="M302.4 643.6801L302.88 643.6801L302.88 643.6801L302.88 612.48L302.88 612.48L302.4 612.48zM105.24 643.6801L105.72 643.6801L105.72 643.6801L105.72 612.48L105.72 612.48L105.24 612.48zM499.08 644.16L499.56 644.16L499.56 644.16L499.56 643.6801L499.56 643.6801L499.08 643.6801z" stroke="none" fill="#000000" fill-rule="evenodd" /><path transform="matrix(1 0 0 -1 0 841)" d="M499.08 643.6801L499.56 643.6801L499.56 643.6801L499.56 612.48L499.56 612.48L499.08 612.48z" stroke="none" fill="#000000" fill-rule="winding" /><path transform="matrix(1 0 0 -1 0 841)" d="M105.24 612.48L499.08 612.48L499.08 612.48L499.08 612.0001L499.08 612.0001L105.24 612.0001z" stroke="none" fill="#000000" fill-rule="evenodd" /><path transform="matrix(1 0 0 -1 0 841)" d="M302.4 612.0001L302.88 612.0001L302.88 612.0001L302.88 580.6801L302.88 580.6801L302.4 580.6801zM105.24 612.0001L105.72 612.0001L105.72 612.0001L105.72 580.6801L105.72 580.6801L105.24 580.6801zM499.08 612.48L499.56 612.48L499.56 612.48L499.56 612.0001L499.56 612.0001L499.08 612.0001z" stroke="none" fill="#000000" fill-rule="evenodd" /><path transform="matrix(1 0 0 -1 0 841)" d="M499.08 612.0001L499.56 612.0001L499.56 612.0001L499.56 580.6801L499.56 580.6801L499.08 580.6801z" stroke="none" fill="#000000" fill-rule="winding" /><path transform="matrix(1 0 0 -1 0 841)" d="M105.24 580.6801L499.08 580.6801L499.08 580.6801L499.08 580.2001L499.08 580.2001L105.24 580.2001z" stroke="none" fill="#000000" fill-rule="evenodd" /><path transform="matrix(1 0 0 -1 0 841)" d="M499.08 580.6801L499.56 580.6801L499.56 580.6801L499.56 580.2001L499.56 580.2001L499.08 580.2001z" stroke="none" fill="#000000" fill-rule="winding" /><path transform="matrix(1 0 0 -1 0 841)" d="M105.24 580.2001L105.72 580.2001L105.72 580.2001L105.72 517.3201L105.72 517.3201L105.24 517.3201z" stroke="none" fill="#000000" fill-rule="evenodd" /><path transform="matrix(1 0 0 -1 0 841)" d="M105.24 517.8L499.08 517.8L499.08 517.8L499.08 517.3201L499.08 517.3201L105.24 517.3201z" stroke="none" fill="#000000" fill-rule="evenodd" /><path transform="matrix(1 0 0 -1 0 841)" d="M499.08 580.2001L499.56 580.2001L499.56 580.2001L499.56 517.3201L499.56 517.3201L499.08 517.3201z" stroke="none" fill="#000000" fill-rule="evenodd" /><path transform="matrix(1 0 0 -1 0 841)" d="M499.08 517.8L499.56 517.8L499.56 517.8L499.56 517.3201L499.56 517.3201L499.08 517.3201z" stroke="none" fill="#000000" fill-rule="winding" /><path transform="matrix(1 0 0 -1 0 841)" d="M105.72 454.44L147.72 454.44L147.72 454.44L147.72 423.2401L147.72 423.2401L105.72 423.2401z" stroke="none" fill="#BFBFBF" fill-rule="evenodd" /><g clip-path="url(#2)"></g><path transform="matrix(1 0 0 -1 0 841)" d="M148.2 454.44L395.76 454.44L395.76 454.44L395.76 423.2401L395.76 423.2401L148.2 423.2401z" stroke="none" fill="#BFBFBF" fill-rule="evenodd" /><path transform="matrix(1 0 0 -1 0 841)" d="M396.36 454.44L445.44 454.44L445.44 454.44L445.44 423.2401L445.44 423.2401L396.36 423.2401z" stroke="none" fill="#BFBFBF" fill-rule="evenodd" /><path transform="matrix(1 0 0 -1 0 841)" d="M445.92 454.44L498.96 454.44L498.96 454.44L498.96 423.2401L498.96 423.2401L445.92 423.2401z" stroke="none" fill="#BFBFBF" fill-rule="evenodd" /><path transform="matrix(1 0 0 -1 0 841)" d="M105.24 454.92L499.08 454.92L499.08 454.92L499.08 454.44L499.08 454.44L105.24 454.44z" stroke="none" fill="#000000" fill-rule="evenodd" /><path transform="matrix(1 0 0 -1 0 841)" d="M445.44 454.44L445.92 454.44L445.92 454.44L445.92 423.2401L445.92 423.2401L445.44 423.2401zM395.88 454.44L396.36 454.44L396.36 454.44L396.36 423.2401L396.36 423.2401L395.88 423.2401zM147.84 454.44L148.32 454.44L148.32 454.44L148.32 423.2401L148.32 423.2401L147.84 423.2401zM105.24 454.44L105.72 454.44L105.72 454.44L105.72 423.2401L105.72 423.2401L105.24 423.2401zM499.08 454.92L499.56 454.92L499.56 454.92L499.56 454.44L499.56 454.44L499.08 454.44z" stroke="none" fill="#000000" fill-rule="evenodd" /><path transform="matrix(1 0 0 -1 0 841)" d="M499.08 454.44L499.56 454.44L499.56 454.44L499.56 423.2401L499.56 423.2401L499.08 423.2401z" stroke="none" fill="#000000" fill-rule="winding" /><path transform="matrix(1 0 0 -1 0 841)" d="M105.72 422.76L147.72 422.76L147.72 422.76L147.72 391.5601L147.72 391.5601L105.72 391.5601z" stroke="none" fill="#BFBFBF" fill-rule="evenodd" /><path transform="matrix(1 0 0 -1 0 841)" d="M105.24 423.2401L499.08 423.2401L499.08 423.2401L499.08 422.76L499.08 422.76L105.24 422.76z" stroke="none" fill="#000000" fill-rule="evenodd" /><path transform="matrix(1 0 0 -1 0 841)" d="M445.44 422.76L445.92 422.76L445.92 422.76L445.92 391.5601L445.92 391.5601L445.44 391.5601zM395.88 422.76L396.36 422.76L396.36 422.76L396.36 391.5601L396.36 391.5601L395.88 391.5601zM147.84 422.76L148.32 422.76L148.32 422.76L148.32 391.5601L148.32 391.5601L147.84 391.5601zM105.24 422.76L105.72 422.76L105.72 422.76L105.72 391.5601L105.72 391.5601L105.24 391.5601zM499.08 423.2401L499.56 423.2401L499.56 423.2401L499.56 422.76L499.56 422.76L499.08 422.76z" stroke="none" fill="#000000" fill-rule="evenodd" /><path transform="matrix(1 0 0 -1 0 841)" d="M499.08 422.76L499.56 422.76L499.56 422.76L499.56 391.5601L499.56 391.5601L499.08 391.5601z" stroke="none" fill="#000000" fill-rule="winding" /><path transform="matrix(1 0 0 -1 0 841)" d="M105.72 391.08L147.72 391.08L147.72 391.08L147.72 359.8801L147.72 359.8801L105.72 359.8801z" stroke="none" fill="#BFBFBF" fill-rule="evenodd" /><path transform="matrix(1 0 0 -1 0 841)" d="M105.24 391.5601L499.08 391.5601L499.08 391.5601L499.08 391.08L499.08 391.08L105.24 391.08z" stroke="none" fill="#000000" fill-rule="evenodd" /><path transform="matrix(1 0 0 -1 0 841)" d="M445.44 391.08L445.92 391.08L445.92 391.08L445.92 359.8801L445.92 359.8801L445.44 359.8801zM395.88 391.08L396.36 391.08L396.36 391.08L396.36 359.8801L396.36 359.8801L395.88 359.8801zM147.84 391.08L148.32 391.08L148.32 391.08L148.32 359.8801L148.32 359.8801L147.84 359.8801zM105.24 391.08L105.72 391.08L105.72 391.08L105.72 359.8801L105.72 359.8801L105.24 359.8801zM499.08 391.5601L499.56 391.5601L499.56 391.5601L499.56 391.08L499.56 391.08L499.08 391.08z" stroke="none" fill="#000000" fill-rule="evenodd" /><path transform="matrix(1 0 0 -1 0 841)" d="M499.08 391.08L499.56 391.08L499.56 391.08L499.56 359.8801L499.56 359.8801L499.08 359.8801z" stroke="none" fill="#000000" fill-rule="winding" /><path transform="matrix(1 0 0 -1 0 841)" d="M105.72 359.28L147.72 359.28L147.72 359.28L147.72 328.0801L147.72 328.0801L105.72 328.0801z" stroke="none" fill="#BFBFBF" fill-rule="evenodd" /><path transform="matrix(1 0 0 -1 0 841)" d="M105.24 359.8801L499.08 359.8801L499.08 359.8801L499.08 359.4001L499.08 359.4001L105.24 359.4001z" stroke="none" fill="#000000" fill-rule="evenodd" /><path transform="matrix(1 0 0 -1 0 841)" d="M499.08 359.8801L499.56 359.8801L499.56 359.8801L499.56 359.4001L499.56 359.4001L499.08 359.4001z" stroke="none" fill="#000000" fill-rule="winding" /><path transform="matrix(1 0 0 -1 0 841)" d="M105.24 359.4001L105.72 359.4001L105.72 359.4001L105.72 327.6L105.72 327.6L105.24 327.6z" stroke="none" fill="#000000" fill-rule="evenodd" /><path transform="matrix(1 0 0 -1 0 841)" d="M105.24 328.0801L147.84 328.0801L147.84 328.0801L147.84 327.6L147.84 327.6L105.24 327.6z" stroke="none" fill="#000000" fill-rule="evenodd" /><path transform="matrix(1 0 0 -1 0 841)" d="M147.84 359.4001L148.32 359.4001L148.32 359.4001L148.32 327.6L148.32 327.6L147.84 327.6z" stroke="none" fill="#000000" fill-rule="evenodd" /><path transform="matrix(1 0 0 -1 0 841)" d="M148.32 328.0801L395.88 328.0801L395.88 328.0801L395.88 327.6L395.88 327.6L148.32 327.6z" stroke="none" fill="#000000" fill-rule="winding" /><path transform="matrix(1 0 0 -1 0 841)" d="M395.88 359.4001L396.36 359.4001L396.36 359.4001L396.36 327.6L396.36 327.6L395.88 327.6z" stroke="none" fill="#000000" fill-rule="evenodd" /><path transform="matrix(1 0 0 -1 0 841)" d="M396.36 328.0801L445.44 328.0801L445.44 328.0801L445.44 327.6L445.44 327.6L396.36 327.6z" stroke="none" fill="#000000" fill-rule="winding" /><path transform="matrix(1 0 0 -1 0 841)" d="M445.44 359.4001L445.92 359.4001L445.92 359.4001L445.92 327.6L445.92 327.6L445.44 327.6z" stroke="none" fill="#000000" fill-rule="evenodd" /><path transform="matrix(1 0 0 -1 0 841)" d="M445.92 328.0801L499.08 328.0801L499.08 328.0801L499.08 327.6L499.08 327.6L445.92 327.6z" stroke="none" fill="#000000" fill-rule="winding" /><path transform="matrix(1 0 0 -1 0 841)" d="M499.08 359.4001L499.56 359.4001L499.56 359.4001L499.56 327.6L499.56 327.6L499.08 327.6z" stroke="none" fill="#000000" fill-rule="evenodd" /><path transform="matrix(1 0 0 -1 0 841)" d="M499.08 328.0801L499.56 328.0801L499.56 328.0801L499.56 327.6L499.56 327.6L499.08 327.6z" stroke="none" fill="#000000" fill-rule="winding" /></g></g></g></svg>