<svg xmlns="http://www.w3.org/2000/svg" xmlns:xlink="http://www.w3.org/1999/xlink" id="body_1" preserveAspectRatio="xMinYMin meet" viewBox="0 0 793 1121"><defs><clipPath id="1"><path d="M0 841L0 -0.9200439L0 -0.9200439L595.32 -0.9200439L595.32 -0.9200439L595.32 841L595.32 841L0 841z" /></clipPath><clipPath id="2"><path d="M110.88 140.4399L277.44 140.4399L277.44 140.4399L277.44 298.24L277.44 298.24L110.88 298.24z" /></clipPath><clipPath id="3"><path d="M314.16 159.64L493.68 159.64L493.68 159.64L493.68 298.24L493.68 298.24L314.16 298.24z" /></clipPath></defs><g transform="matrix(1.333333 0 0 1.333333 0 0)"><g><g clip-path="url(#1)"><g clip-path="url(#2)"><g transform="matrix(0.2211952 0 0 0.1905797 110.88 140.44)"><g transform="matrix(1 0 0 1 0 0)"><image x="0" y="0" xlink:href="img_01.png" width="753" height="828" /></g></g></g><g clip-path="url(#3)"><g transform="matrix(0.1665306 0 0 0.1717472 314.16 159.64)"><g transform="matrix(1 0 0 1 0 0)"><image x="0" y="0" xlink:href="img_02.png" width="1078" height="807" /></g></g></g></g></g></g></svg>