<svg xmlns="http://www.w3.org/2000/svg" xmlns:xlink="http://www.w3.org/1999/xlink" id="body_1" preserveAspectRatio="xMinYMin meet" viewBox="0 0 793 1123"><defs><clipPath id="1"><path d="M0 842L0 0L0 0L595.22 0L595.22 0L595.22 842L595.22 842L0 842z" /></clipPath></defs><g transform="matrix(1.333333 0 0 1.333333 0 0)"><g><g clip-path="url(#1)"><g transform="matrix(0.4795948 0 0 0.4786765 90 138.18)"><g transform="matrix(1 0 0 1 0 0)"><image x="0" y="0" xlink:href="img_01.png" width="232" height="408" /></g></g><g transform="matrix(0.4798588 0 0 0.4792288 300.78 147.06)"><g transform="matrix(1 0 0 1 0 0)"><image x="0" y="0" xlink:href="img_02.png" width="425" height="389" /></g></g><path transform="matrix(1 0 0 -1 0 842)" d="M214.74 701L214.2 701.48L214.2 701.48L286.8 701.48L286.8 701.48L286.32 701L286.32 701L286.32 725L286.32 725L286.8 724.46L286.8 724.46L214.2 724.46L214.2 724.46L214.74 725M213.72 725.48L287.34 725.48L287.34 725.48L287.34 700.46L287.34 700.46L213.72 700.46z" stroke="none" fill="#2F528F" fill-rule="winding" /><path transform="matrix(1 0 0 -1 0 842)" d="M213.6 712.76L200.94 712.76L200.94 712.76L201.24 712.88L201.24 712.88L180.66 697.58L180.66 697.58L180.06 698.36L180.06 698.36L200.76 713.78L200.76 713.78L213.6 713.78" stroke="none" fill="#2F528F" fill-rule="winding" /><path transform="matrix(1 0 0 -1 0 842)" d="M214.74 590L214.2 590.48L214.2 590.48L286.8 590.48L286.8 590.48L286.32 590L286.32 590L286.32 614L286.32 614L286.8 613.46L286.8 613.46L214.2 613.46L214.2 613.46L214.74 614M213.72 614.48L287.34 614.48L287.34 614.48L287.34 589.46L287.34 589.46L213.72 589.46z" stroke="none" fill="#2F528F" fill-rule="winding" /><path transform="matrix(1 0 0 -1 0 842)" d="M214.74 601.16L201.48 601.7599L201.48 601.7599L201.96 602L201.96 602L181.98 566.9L181.98 566.9L181.14 567.4399L181.14 567.4399L201.24 602.78L201.24 602.78L214.8 602.18" stroke="none" fill="#2F528F" fill-rule="winding" /><path transform="matrix(1 0 0 -1 0 842)" d="M214.74 530L214.2 530.48L214.2 530.48L286.8 530.48L286.8 530.48L286.32 530L286.32 530L286.32 554L286.32 554L286.8 553.46L286.8 553.46L214.2 553.46L214.2 553.46L214.74 554M213.72 554.48L287.34 554.48L287.34 554.48L287.34 529.46L287.34 529.46L213.72 529.46z" stroke="none" fill="#2F528F" fill-rule="winding" /><path transform="matrix(1 0 0 -1 0 842)" d="M214.8 541.76L203.16 541.76L203.16 541.76L184.86 553.58L184.86 553.58L185.4 554.42L185.4 554.42L203.58 542.72L203.58 542.72L203.34 542.78L203.34 542.78L214.8 542.78" stroke="none" fill="#2F528F" fill-rule="winding" /></g></g></g></svg>