<svg xmlns="http://www.w3.org/2000/svg" xmlns:xlink="http://www.w3.org/1999/xlink" id="body_3" preserveAspectRatio="xMinYMin meet" viewBox="0 0 793 1123"><defs><clipPath id="1"><path d="M0 842L0 0L0 0L595.22 0L595.22 0L595.22 842L595.22 842L0 842z" /></clipPath></defs><g transform="matrix(1.333333 0 0 1.333333 0 0)"><g><g clip-path="url(#1)"><path transform="matrix(1 0 0 -1 0 842)" d="M105.84 519.92L499.14 519.92L499.14 519.92L499.14 551.12L499.14 551.12L105.84 551.12z" stroke="none" fill="#BFBFBF" fill-rule="winding" /><path transform="matrix(1 0 0 -1 0 842)" d="M111 519.92L493.98 519.92L493.98 519.92L493.98 551.12L493.98 551.12L111 551.12z" stroke="none" fill="#BFBFBF" fill-rule="winding" /><path transform="matrix(1 0 0 -1 0 842)" d="M105.36 551.12L105.84 551.12L105.84 551.12L105.84 551.6L105.84 551.6L105.36 551.6z" stroke="none" fill="#000000" fill-rule="winding" /><path transform="matrix(1 0 0 -1 0 842)" d="M105.36 551.12L499.62 551.12L499.62 551.12L499.62 551.6L499.62 551.6L105.36 551.6z" stroke="none" fill="#000000" fill-rule="winding" /><path transform="matrix(1 0 0 -1 0 842)" d="M499.14 551.12L499.62 551.12L499.62 551.12L499.62 551.6L499.62 551.6L499.14 551.6z" stroke="none" fill="#000000" fill-rule="winding" /><path transform="matrix(1 0 0 -1 0 842)" d="M105.36 519.92L105.84 519.92L105.84 519.92L105.84 551.12L105.84 551.12L105.36 551.12z" stroke="none" fill="#000000" fill-rule="winding" /><path transform="matrix(1 0 0 -1 0 842)" d="M499.14 519.92L499.62 519.92L499.62 519.92L499.62 551.12L499.62 551.12L499.14 551.12z" stroke="none" fill="#000000" fill-rule="winding" /><path transform="matrix(1 0 0 -1 0 842)" d="M105.36 519.44L499.62 519.44L499.62 519.44L499.62 519.92L499.62 519.92L105.36 519.92z" stroke="none" fill="#000000" fill-rule="winding" /><path transform="matrix(1 0 0 -1 0 842)" d="M105.36 488.18L105.84 488.18L105.84 488.18L105.84 519.44L105.84 519.44L105.36 519.44z" stroke="none" fill="#000000" fill-rule="winding" /><path transform="matrix(1 0 0 -1 0 842)" d="M302.58 488.18L303.06 488.18L303.06 488.18L303.06 519.44L303.06 519.44L302.58 519.44z" stroke="none" fill="#000000" fill-rule="winding" /><path transform="matrix(1 0 0 -1 0 842)" d="M499.14 488.18L499.62 488.18L499.62 488.18L499.62 519.44L499.62 519.44L499.14 519.44z" stroke="none" fill="#000000" fill-rule="winding" /><path transform="matrix(1 0 0 -1 0 842)" d="M105.36 487.7L499.62 487.7L499.62 487.7L499.62 488.18L499.62 488.18L105.36 488.18z" stroke="none" fill="#000000" fill-rule="winding" /><path transform="matrix(1 0 0 -1 0 842)" d="M105.36 456.5L105.84 456.5L105.84 456.5L105.84 487.7L105.84 487.7L105.36 487.7z" stroke="none" fill="#000000" fill-rule="winding" /><path transform="matrix(1 0 0 -1 0 842)" d="M302.58 456.5L303.06 456.5L303.06 456.5L303.06 487.7L303.06 487.7L302.58 487.7z" stroke="none" fill="#000000" fill-rule="winding" /><path transform="matrix(1 0 0 -1 0 842)" d="M499.14 456.5L499.62 456.5L499.62 456.5L499.62 487.7L499.62 487.7L499.14 487.7z" stroke="none" fill="#000000" fill-rule="winding" /><path transform="matrix(1 0 0 -1 0 842)" d="M105.36 456.02L499.62 456.02L499.62 456.02L499.62 456.5L499.62 456.5L105.36 456.5z" stroke="none" fill="#000000" fill-rule="winding" /><path transform="matrix(1 0 0 -1 0 842)" d="M105.36 424.82L105.84 424.82L105.84 424.82L105.84 456.02L105.84 456.02L105.36 456.02z" stroke="none" fill="#000000" fill-rule="winding" /><path transform="matrix(1 0 0 -1 0 842)" d="M302.58 424.82L303.06 424.82L303.06 424.82L303.06 456.02L303.06 456.02L302.58 456.02z" stroke="none" fill="#000000" fill-rule="winding" /><path transform="matrix(1 0 0 -1 0 842)" d="M499.14 424.82L499.62 424.82L499.62 424.82L499.62 456.02L499.62 456.02L499.14 456.02z" stroke="none" fill="#000000" fill-rule="winding" /><path transform="matrix(1 0 0 -1 0 842)" d="M105.36 424.34L499.62 424.34L499.62 424.34L499.62 424.82L499.62 424.82L105.36 424.82z" stroke="none" fill="#000000" fill-rule="winding" /><path transform="matrix(1 0 0 -1 0 842)" d="M105.36 361.4L105.84 361.4L105.84 361.4L105.84 424.34L105.84 424.34L105.36 424.34z" stroke="none" fill="#000000" fill-rule="winding" /><path transform="matrix(1 0 0 -1 0 842)" d="M105.36 361.4L499.14 361.4L499.14 361.4L499.14 361.88L499.14 361.88L105.36 361.88z" stroke="none" fill="#000000" fill-rule="winding" /><path transform="matrix(1 0 0 -1 0 842)" d="M499.14 361.4L499.62 361.4L499.62 361.4L499.62 424.34L499.62 424.34L499.14 424.34z" stroke="none" fill="#000000" fill-rule="winding" /><path transform="matrix(1 0 0 -1 0 842)" d="M499.14 361.4L499.62 361.4L499.62 361.4L499.62 361.88L499.62 361.88L499.14 361.88z" stroke="none" fill="#000000" fill-rule="winding" /><path transform="matrix(1 0 0 -1 0 842)" d="M105.84 267.32L147.9 267.32L147.9 267.32L147.9 298.52L147.9 298.52L105.84 298.52z" stroke="none" fill="#BFBFBF" fill-rule="winding" /><path transform="matrix(1 0 0 -1 0 842)" d="M111 267.32L142.74 267.32L142.74 267.32L142.74 298.52L142.74 298.52L111 298.52z" stroke="none" fill="#BFBFBF" fill-rule="winding" /><path transform="matrix(1 0 0 -1 0 842)" d="M148.38 267.32L395.94 267.32L395.94 267.32L395.94 298.52L395.94 298.52L148.38 298.52z" stroke="none" fill="#BFBFBF" fill-rule="winding" /><path transform="matrix(1 0 0 -1 0 842)" d="M153.54 267.32L390.78 267.32L390.78 267.32L390.78 298.52L390.78 298.52L153.54 298.52z" stroke="none" fill="#BFBFBF" fill-rule="winding" /><path transform="matrix(1 0 0 -1 0 842)" d="M396.42 267.32L445.62 267.32L445.62 267.32L445.62 298.52L445.62 298.52L396.42 298.52z" stroke="none" fill="#BFBFBF" fill-rule="winding" /><path transform="matrix(1 0 0 -1 0 842)" d="M401.58 267.32L440.46 267.32L440.46 267.32L440.46 298.52L440.46 298.52L401.58 298.52z" stroke="none" fill="#BFBFBF" fill-rule="winding" /><path transform="matrix(1 0 0 -1 0 842)" d="M446.1 267.32L499.14 267.32L499.14 267.32L499.14 298.52L499.14 298.52L446.1 298.52z" stroke="none" fill="#BFBFBF" fill-rule="winding" /><path transform="matrix(1 0 0 -1 0 842)" d="M451.26 267.32L493.98 267.32L493.98 267.32L493.98 298.52L493.98 298.52L451.26 298.52z" stroke="none" fill="#BFBFBF" fill-rule="winding" /><path transform="matrix(1 0 0 -1 0 842)" d="M105.36 298.52L105.84 298.52L105.84 298.52L105.84 299L105.84 299L105.36 299z" stroke="none" fill="#000000" fill-rule="winding" /><path transform="matrix(1 0 0 -1 0 842)" d="M105.36 298.52L499.62 298.52L499.62 298.52L499.62 299L499.62 299L105.36 299z" stroke="none" fill="#000000" fill-rule="winding" /><path transform="matrix(1 0 0 -1 0 842)" d="M499.14 298.52L499.62 298.52L499.62 298.52L499.62 299L499.62 299L499.14 299z" stroke="none" fill="#000000" fill-rule="winding" /><path transform="matrix(1 0 0 -1 0 842)" d="M105.36 267.32L105.84 267.32L105.84 267.32L105.84 298.52L105.84 298.52L105.36 298.52z" stroke="none" fill="#000000" fill-rule="winding" /><path transform="matrix(1 0 0 -1 0 842)" d="M147.9 267.32L148.38 267.32L148.38 267.32L148.38 298.52L148.38 298.52L147.9 298.52z" stroke="none" fill="#000000" fill-rule="winding" /><path transform="matrix(1 0 0 -1 0 842)" d="M395.94 267.32L396.42 267.32L396.42 267.32L396.42 298.52L396.42 298.52L395.94 298.52z" stroke="none" fill="#000000" fill-rule="winding" /><path transform="matrix(1 0 0 -1 0 842)" d="M445.62 267.32L446.1 267.32L446.1 267.32L446.1 298.52L446.1 298.52L445.62 298.52z" stroke="none" fill="#000000" fill-rule="winding" /><path transform="matrix(1 0 0 -1 0 842)" d="M499.14 267.32L499.62 267.32L499.62 267.32L499.62 298.52L499.62 298.52L499.14 298.52z" stroke="none" fill="#000000" fill-rule="winding" /><path transform="matrix(1 0 0 -1 0 842)" d="M105.84 235.58L147.9 235.58L147.9 235.58L147.9 266.78L147.9 266.78L105.84 266.78z" stroke="none" fill="#BFBFBF" fill-rule="winding" /><path transform="matrix(1 0 0 -1 0 842)" d="M111 235.58L142.74 235.58L142.74 235.58L142.74 266.78L142.74 266.78L111 266.78z" stroke="none" fill="#BFBFBF" fill-rule="winding" /><path transform="matrix(1 0 0 -1 0 842)" d="M105.36 266.84L499.62 266.84L499.62 266.84L499.62 267.32L499.62 267.32L105.36 267.32z" stroke="none" fill="#000000" fill-rule="winding" /><path transform="matrix(1 0 0 -1 0 842)" d="M105.36 235.58L105.84 235.58L105.84 235.58L105.84 266.84L105.84 266.84L105.36 266.84z" stroke="none" fill="#000000" fill-rule="winding" /><path transform="matrix(1 0 0 -1 0 842)" d="M147.9 235.58L148.38 235.58L148.38 235.58L148.38 266.84L148.38 266.84L147.9 266.84z" stroke="none" fill="#000000" fill-rule="winding" /><path transform="matrix(1 0 0 -1 0 842)" d="M395.94 235.58L396.42 235.58L396.42 235.58L396.42 266.84L396.42 266.84L395.94 266.84z" stroke="none" fill="#000000" fill-rule="winding" /><path transform="matrix(1 0 0 -1 0 842)" d="M445.62 235.58L446.1 235.58L446.1 235.58L446.1 266.84L446.1 266.84L445.62 266.84z" stroke="none" fill="#000000" fill-rule="winding" /><path transform="matrix(1 0 0 -1 0 842)" d="M499.14 235.58L499.62 235.58L499.62 235.58L499.62 266.84L499.62 266.84L499.14 266.84z" stroke="none" fill="#000000" fill-rule="winding" /><path transform="matrix(1 0 0 -1 0 842)" d="M105.84 203.9L147.9 203.9L147.9 203.9L147.9 235.1L147.9 235.1L105.84 235.1z" stroke="none" fill="#BFBFBF" fill-rule="winding" /><path transform="matrix(1 0 0 -1 0 842)" d="M111 203.9L142.74 203.9L142.74 203.9L142.74 235.1L142.74 235.1L111 235.1z" stroke="none" fill="#BFBFBF" fill-rule="winding" /><path transform="matrix(1 0 0 -1 0 842)" d="M105.36 235.1L499.62 235.1L499.62 235.1L499.62 235.58L499.62 235.58L105.36 235.58z" stroke="none" fill="#000000" fill-rule="winding" /><path transform="matrix(1 0 0 -1 0 842)" d="M105.36 203.9L105.84 203.9L105.84 203.9L105.84 235.1L105.84 235.1L105.36 235.1z" stroke="none" fill="#000000" fill-rule="winding" /><path transform="matrix(1 0 0 -1 0 842)" d="M147.9 203.9L148.38 203.9L148.38 203.9L148.38 235.1L148.38 235.1L147.9 235.1z" stroke="none" fill="#000000" fill-rule="winding" /><path transform="matrix(1 0 0 -1 0 842)" d="M395.94 203.9L396.42 203.9L396.42 203.9L396.42 235.1L396.42 235.1L395.94 235.1z" stroke="none" fill="#000000" fill-rule="winding" /><path transform="matrix(1 0 0 -1 0 842)" d="M445.62 203.9L446.1 203.9L446.1 203.9L446.1 235.1L446.1 235.1L445.62 235.1z" stroke="none" fill="#000000" fill-rule="winding" /><path transform="matrix(1 0 0 -1 0 842)" d="M499.14 203.9L499.62 203.9L499.62 203.9L499.62 235.1L499.62 235.1L499.14 235.1z" stroke="none" fill="#000000" fill-rule="winding" /><path transform="matrix(1 0 0 -1 0 842)" d="M105.84 172.22L147.9 172.22L147.9 172.22L147.9 203.42L147.9 203.42L105.84 203.42z" stroke="none" fill="#BFBFBF" fill-rule="winding" /><path transform="matrix(1 0 0 -1 0 842)" d="M111 172.22L142.74 172.22L142.74 172.22L142.74 203.42L142.74 203.42L111 203.42z" stroke="none" fill="#BFBFBF" fill-rule="winding" /><path transform="matrix(1 0 0 -1 0 842)" d="M105.36 203.42L499.62 203.42L499.62 203.42L499.62 203.9L499.62 203.9L105.36 203.9z" stroke="none" fill="#000000" fill-rule="winding" /><path transform="matrix(1 0 0 -1 0 842)" d="M105.36 172.22L105.84 172.22L105.84 172.22L105.84 203.42L105.84 203.42L105.36 203.42z" stroke="none" fill="#000000" fill-rule="winding" /><path transform="matrix(1 0 0 -1 0 842)" d="M147.9 172.22L148.38 172.22L148.38 172.22L148.38 203.42L148.38 203.42L147.9 203.42z" stroke="none" fill="#000000" fill-rule="winding" /><path transform="matrix(1 0 0 -1 0 842)" d="M395.94 172.22L396.42 172.22L396.42 172.22L396.42 203.42L396.42 203.42L395.94 203.42z" stroke="none" fill="#000000" fill-rule="winding" /><path transform="matrix(1 0 0 -1 0 842)" d="M445.62 172.22L446.1 172.22L446.1 172.22L446.1 203.42L446.1 203.42L445.62 203.42z" stroke="none" fill="#000000" fill-rule="winding" /><path transform="matrix(1 0 0 -1 0 842)" d="M499.14 172.22L499.62 172.22L499.62 172.22L499.62 203.42L499.62 203.42L499.14 203.42z" stroke="none" fill="#000000" fill-rule="winding" /><path transform="matrix(1 0 0 -1 0 842)" d="M105.84 140.48L147.9 140.48L147.9 140.48L147.9 171.68L147.9 171.68L105.84 171.68z" stroke="none" fill="#BFBFBF" fill-rule="winding" /><path transform="matrix(1 0 0 -1 0 842)" d="M111 140.48L142.74 140.48L142.74 140.48L142.74 171.68L142.74 171.68L111 171.68z" stroke="none" fill="#BFBFBF" fill-rule="winding" /><path transform="matrix(1 0 0 -1 0 842)" d="M105.36 171.74L499.62 171.74L499.62 171.74L499.62 172.22L499.62 172.22L105.36 172.22z" stroke="none" fill="#000000" fill-rule="winding" /><path transform="matrix(1 0 0 -1 0 842)" d="M105.36 140L105.84 140L105.84 140L105.84 171.74L105.84 171.74L105.36 171.74z" stroke="none" fill="#000000" fill-rule="winding" /><path transform="matrix(1 0 0 -1 0 842)" d="M105.36 140L147.9 140L147.9 140L147.9 140.48L147.9 140.48L105.36 140.48z" stroke="none" fill="#000000" fill-rule="winding" /><path transform="matrix(1 0 0 -1 0 842)" d="M147.9 140L148.38 140L148.38 140L148.38 171.74L148.38 171.74L147.9 171.74z" stroke="none" fill="#000000" fill-rule="winding" /><path transform="matrix(1 0 0 -1 0 842)" d="M148.38 140L395.94 140L395.94 140L395.94 140.48L395.94 140.48L148.38 140.48z" stroke="none" fill="#000000" fill-rule="winding" /><path transform="matrix(1 0 0 -1 0 842)" d="M395.94 140L396.42 140L396.42 140L396.42 171.74L396.42 171.74L395.94 171.74z" stroke="none" fill="#000000" fill-rule="winding" /><path transform="matrix(1 0 0 -1 0 842)" d="M396.42 140L445.62 140L445.62 140L445.62 140.48L445.62 140.48L396.42 140.48z" stroke="none" fill="#000000" fill-rule="winding" /><path transform="matrix(1 0 0 -1 0 842)" d="M445.62 140L446.1 140L446.1 140L446.1 171.74L446.1 171.74L445.62 171.74z" stroke="none" fill="#000000" fill-rule="winding" /><path transform="matrix(1 0 0 -1 0 842)" d="M446.1 140L499.14 140L499.14 140L499.14 140.48L499.14 140.48L446.1 140.48z" stroke="none" fill="#000000" fill-rule="winding" /><path transform="matrix(1 0 0 -1 0 842)" d="M499.14 140L499.62 140L499.62 140L499.62 171.74L499.62 171.74L499.14 171.74z" stroke="none" fill="#000000" fill-rule="winding" /><path transform="matrix(1 0 0 -1 0 842)" d="M499.14 140L499.62 140L499.62 140L499.62 140.48L499.62 140.48L499.14 140.48z" stroke="none" fill="#000000" fill-rule="winding" /></g></g></g></svg>